<svg width="252" height="186" viewBox="0 0 252 186" fill="none" xmlns="http://www.w3.org/2000/svg">
<g clip-path="url(#clip0_12_2)">
<path opacity="0.1" d="M16.4934 72.9023H38.3954V102.721H18.0948C18.043 103.029 17.9912 103.335 17.933 103.643H38.3954V127.687C38.3608 127.687 38.3263 127.661 38.2939 127.648C37.7184 127.419 37.1429 127.177 36.5673 126.922C36.4443 126.866 36.3234 126.807 36.1983 126.753C35.6227 126.482 35.0472 126.194 34.4717 125.891C34.2709 125.786 34.0702 125.676 33.8738 125.564C30.6787 123.783 27.7747 121.525 25.2624 118.868C25.1868 118.797 25.1178 118.72 25.0466 118.653C24.6969 118.273 24.3538 117.89 24.0214 117.497C23.8962 117.353 23.7753 117.206 23.6523 117.066C23.2595 116.588 22.8797 116.092 22.5128 115.594C22.4567 115.518 22.4049 115.445 22.3509 115.378C20.8479 113.301 19.6015 111.05 18.6387 108.674C18.6085 108.603 18.5804 108.526 18.5524 108.459C18.2545 107.704 17.9847 106.939 17.7517 106.159C17.6524 105.833 17.5553 105.512 17.4732 105.174C17.443 105.077 17.4193 104.978 17.3934 104.881C16.1804 100.106 16.0402 95.1437 16.0402 90.2053C16.0402 89.6304 16.0402 89.0556 16.0402 88.4808C16.0574 86.4646 16.0812 84.4505 16.1114 82.4387C16.1229 81.9213 16.1337 81.4018 16.1438 80.8802C16.174 79.5595 16.2171 78.236 16.2733 76.9096C16.2862 76.5431 16.3035 76.1745 16.3229 75.8102C16.3315 75.5989 16.3423 75.3877 16.3553 75.1765C16.3941 74.4134 16.4402 73.6553 16.4934 72.9023Z" fill="#0089FF"/>
<path opacity="0.1" d="M38.3954 39.7018H26.3804C28.3344 36.6505 30.4683 33.7181 32.771 30.9199C34.558 28.7298 36.44 26.5958 38.3954 24.5393V39.7018Z" fill="#0089FF"/>
<path opacity="0.1" d="M38.3953 40.6201V71.9797H16.5624C16.5624 71.8892 16.5754 71.7965 16.584 71.7059C16.6034 71.458 16.6229 71.2123 16.6445 70.9644C16.666 70.6756 16.6941 70.3867 16.7221 70.1022C16.7502 69.8176 16.7783 69.4727 16.8128 69.1602C16.8473 68.8476 16.8754 68.5307 16.9099 68.2182C16.9445 67.9056 16.979 67.5931 17.0178 67.2826C17.0567 66.9722 17.0912 66.6575 17.1344 66.3471C17.1667 66.0906 17.1991 65.8319 17.2358 65.5733C17.2855 65.209 17.3373 64.8447 17.3912 64.4825C17.3912 64.4265 17.4085 64.3726 17.4171 64.3187C17.8116 61.6679 18.3476 59.0401 19.0228 56.4465C19.732 53.7261 20.6372 51.0606 21.7315 48.4708C22.8942 45.7572 24.2562 43.1331 25.8062 40.6201H38.3953Z" fill="#0089FF"/>
<path opacity="0.1" d="M43.627 72.9023V102.721H90.4093V72.9023H43.627ZM43.627 103.643V129.252C43.8946 129.306 44.1579 129.36 44.4233 129.405C44.7795 129.474 45.1377 129.536 45.5025 129.59L45.7183 129.62C45.8607 129.644 46.0054 129.663 46.15 129.681C46.5104 129.732 46.8708 129.771 47.2291 129.806C47.3974 129.823 47.5722 129.836 47.7427 129.851L48.1593 129.881C48.3859 129.898 48.6104 129.911 48.8348 129.92C48.973 129.92 49.1111 129.931 49.2514 129.935C49.3917 129.939 49.4672 129.935 49.5794 129.935H49.9873C50.1729 129.935 50.3586 129.935 50.542 129.935H50.7794C50.965 129.935 51.1506 129.935 51.3341 129.918H51.3449C51.4744 129.918 51.6017 129.918 51.7312 129.903C51.7679 129.905 51.8046 129.905 51.8413 129.903C51.9492 129.903 52.0571 129.903 52.1607 129.89C52.1851 129.888 52.2097 129.888 52.2341 129.89C52.4736 129.875 52.7154 129.855 52.9592 129.834C53.2031 129.812 53.4341 129.786 53.6779 129.761L54.1679 129.7C56.1699 129.42 58.1496 129 60.0923 128.441C64.4584 127.226 68.7253 125.525 73.0893 124.281C78.7267 122.675 84.9597 121.884 90.4071 123.839V103.643H43.627ZM90.4093 39.7018V0.00433552C85.288 -0.051941 80.1805 0.545689 75.2109 1.7827C63.3642 4.75527 52.7262 11.2027 43.627 19.437V39.6997H45.9816V40.6201H43.627V71.9797H90.4093V40.6201H55.6139V39.6975L90.4093 39.7018ZM150.512 26.2918C147.581 26.1884 144.668 25.2636 142.03 23.8302C136.993 21.0947 132.966 16.8654 128.468 13.3001C119.123 5.86972 107.533 1.38392 95.6431 0.27163V39.7018H162.422L162.588 39.5272L150.512 26.2918ZM156.597 25.214L163.048 32.2866V23.3538C160.876 23.6275 158.986 24.2634 156.597 25.2054V25.214ZM163.048 135.611V103.643H149.291C149.256 103.507 149.217 103.37 149.174 103.232C149.215 103.37 149.252 103.507 149.289 103.643H95.6431V126.76C96.1524 127.137 96.6553 127.536 97.1538 127.937C97.692 128.377 98.2265 128.821 98.7574 129.271L99.2927 129.713C99.5495 129.929 99.8106 130.144 100.07 130.349C100.589 130.767 101.112 131.181 101.639 131.591C101.902 131.798 102.167 132.001 102.433 132.201C106.648 135.418 111.095 138.323 115.736 140.89C116.777 141.47 117.828 142.028 118.885 142.573C119.589 142.936 120.298 143.29 121.011 143.638C122.082 144.16 123.161 144.663 124.249 145.147C134.277 149.643 144.882 152.728 155.759 154.313C158.173 154.668 160.599 154.948 163.035 155.153V135.606H163.25L163.048 135.611ZM95.6431 40.6201V71.9797H163.048V40.6201H95.6431ZM95.6431 72.898V102.721H163.048V72.9023L95.6431 72.898ZM168.279 23.3107V33.2911L176.511 24.2656C173.783 23.8158 171.039 23.4975 168.279 23.3107ZM168.279 72.9023V102.721H233.836V72.9023H168.279ZM233.605 137.975L233.836 103.643H168.279V155.501C172.502 155.676 176.731 155.625 180.948 155.347H181.021C183.036 155.218 185.041 155.034 187.037 154.796H187.082C197.732 153.557 208.145 150.779 217.995 146.548L233.605 137.975ZM246.484 77.7999C246.235 77.225 245.979 76.6502 245.717 76.0754C245.23 74.9976 244.716 73.9499 244.185 72.9045H239.07V102.721H252C251.989 94.2751 249.848 85.6527 246.484 77.7999ZM239.07 103.643V133.175C242.711 129.689 245.791 125.699 248.005 121.138C250.671 115.644 251.89 109.698 251.991 103.641L239.07 103.643ZM239.07 64.2131V71.9733H243.706C242.301 69.3056 240.753 66.7152 239.07 64.2131ZM194.61 29.1631C194.269 29.0316 193.926 28.9001 193.583 28.7751C189.964 27.4395 186.267 26.3294 182.511 25.4512L169.911 39.2599L169.665 39.5251L169.827 39.6997H214.671C208.425 35.407 201.691 31.8701 194.61 29.1631ZM215.987 40.6201H169.199L168.279 41.4586V71.9797H176.34H233.836V57.1923C228.637 50.913 222.636 45.3414 215.987 40.6201Z" fill="#0089FF"/>
<path opacity="0.1" d="M38.3953 56.44V71.9797H16.5624C16.5624 71.8892 16.5754 71.7965 16.584 71.7059C16.6034 71.458 16.6229 71.2123 16.6445 70.9644C16.666 70.6756 16.6941 70.3867 16.7221 70.1022C16.7502 69.8176 16.7783 69.4727 16.8128 69.1602C16.8473 68.8476 16.8754 68.5307 16.9099 68.2182C16.9445 67.9056 16.979 67.5931 17.0178 67.2827C17.0567 66.9722 17.0912 66.6575 17.1344 66.3471C17.1667 66.0906 17.1991 65.8319 17.2358 65.5733C17.2855 65.209 17.3373 64.8447 17.3912 64.4825C17.3912 64.4265 17.4085 64.3726 17.4171 64.3187C17.8116 61.6679 18.3476 59.0401 19.0228 56.4465L38.3953 56.44Z" fill="#0089FF"/>
<path opacity="0.1" d="M16.4934 72.9023H38.3954V102.721H18.0948C18.043 103.029 17.9912 103.335 17.933 103.643H38.3954V127.687C38.3608 127.687 38.3263 127.661 38.2939 127.648C37.7184 127.419 37.1429 127.177 36.5673 126.922C36.4443 126.866 36.3234 126.807 36.1983 126.753C35.6227 126.482 35.0472 126.194 34.4717 125.891C34.2709 125.786 34.0702 125.676 33.8738 125.564C30.6787 123.783 27.7747 121.525 25.2624 118.868C25.1868 118.797 25.1178 118.72 25.0466 118.653C24.6969 118.273 24.3538 117.89 24.0214 117.497C23.8962 117.353 23.7753 117.206 23.6523 117.066C23.2595 116.588 22.8797 116.092 22.5128 115.594C22.4567 115.518 22.4049 115.445 22.3509 115.378C20.8479 113.301 19.6015 111.05 18.6387 108.674C18.6085 108.603 18.5804 108.526 18.5524 108.459C18.2545 107.704 17.9847 106.939 17.7517 106.159C17.6524 105.833 17.5553 105.512 17.4732 105.174C17.443 105.077 17.4193 104.978 17.3934 104.881C16.1804 100.106 16.0402 95.1437 16.0402 90.2053C16.0402 89.6304 16.0402 89.0556 16.0402 88.4808C16.0574 86.4646 16.0812 84.4505 16.1114 82.4387C16.1229 81.9213 16.1337 81.4018 16.1438 80.8802C16.174 79.5595 16.2171 78.236 16.2733 76.9096C16.2862 76.5431 16.3035 76.1745 16.3229 75.8102C16.3315 75.5989 16.3423 75.3877 16.3553 75.1765C16.3941 74.4134 16.4402 73.6553 16.4934 72.9023Z" fill="#0089FF"/>
<path opacity="0.1" d="M60.0945 45.1123V71.9797H43.6248V45.1123H45.973V36.0157H55.6118V45.1123H60.0945Z" fill="#0089FF"/>
<path opacity="0.1" d="M60.0923 72.9001H43.6248V102.719H60.0923V72.9001Z" fill="#0089FF"/>
<path opacity="0.1" d="M43.627 103.643H60.0944V128.433C58.1519 128.991 56.1721 129.411 54.17 129.689C54.006 129.713 53.8441 129.732 53.6801 129.75C53.4384 129.778 53.1988 129.804 52.9592 129.825L52.2362 129.883H52.1628L51.8434 129.901H51.7334C51.6039 129.901 51.4765 129.916 51.347 129.918H51.3362C51.1506 129.918 50.9672 129.931 50.7816 129.935H50.5442C50.3607 129.935 50.1773 129.935 49.9895 129.935H49.5837H49.2535C49.1132 129.935 48.9751 129.935 48.8348 129.918C48.6132 129.909 48.3888 129.896 48.1614 129.879L47.7449 129.849C47.5722 129.836 47.3996 129.819 47.2291 129.801C46.8665 129.77 46.5068 129.729 46.15 129.679L45.7183 129.618L45.5025 129.588C45.142 129.534 44.7838 129.474 44.4233 129.405C44.1557 129.357 43.8924 129.303 43.627 129.247V103.643Z" fill="#0089FF"/>
<path opacity="0.1" d="M163.045 41.9393H149.466V71.9775H163.045V41.9393Z" fill="#0089FF"/>
<path opacity="0.1" d="M163.048 72.9001V102.721H95.6431V89.8582H131.546V97.4459H149.466V72.9001H163.048Z" fill="#0089FF"/>
<path opacity="0.1" d="M163.261 135.617C163.19 135.617 163.119 135.617 163.045 135.604V155.166C160.612 154.967 158.188 154.687 155.772 154.328C144.891 152.743 134.282 149.66 124.249 145.167C121.352 143.862 118.515 142.44 115.736 140.901C111.096 138.332 106.651 135.428 102.435 132.211C101.373 131.401 100.327 130.572 99.297 129.726C98.5826 129.135 97.8747 128.532 97.1538 127.948C96.6574 127.545 96.1546 127.146 95.6431 126.766V103.643H149.289C149.25 103.505 149.215 103.369 149.176 103.232C149.217 103.369 149.256 103.505 149.291 103.643H163.048V135.602C163.119 135.604 163.19 135.611 163.261 135.617Z" fill="#0089FF"/>
<path opacity="0.1" d="M198.464 39.7018H189.616V36.9556H193.58V28.7751C193.924 28.9015 194.267 29.0309 194.608 29.1631V36.9556H198.462L198.464 39.7018Z" fill="#0089FF"/>
<path opacity="0.1" d="M219.786 71.9797H176.34C176.345 71.9807 176.349 71.9807 176.353 71.9797H176.334H168.279V41.9415H170.563V64.1441H180.996V50.995H189.618V40.6201H198.467V51.0014H207.085V64.1506H219.788L219.786 71.9797Z" fill="#0089FF"/>
<path opacity="0.1" d="M168.279 72.9023V102.721H219.788V72.9023H168.279ZM233.763 137.818L233.836 114.214H219.788V103.652H168.279V155.5C172.502 155.676 176.731 155.625 180.948 155.347H181.021C183.036 155.218 185.041 155.034 187.037 154.796H187.082C197.732 153.557 208.145 150.779 217.995 146.548" fill="#0089FF"/>
<path opacity="0.1" d="M239.976 103.643H251.991C251.888 109.698 250.67 115.646 248.005 121.138C245.791 125.702 242.711 129.692 239.07 133.177V114.208H239.976V103.643Z" fill="#0089FF"/>
<path opacity="0.1" d="M252 102.721H239.976V77.7998H246.484C249.848 85.6526 251.989 94.275 252 102.721Z" fill="#0089FF"/>
<path opacity="0.1" d="M163.048 50.2901H155.772V59.7079H163.048V50.2901Z" fill="#0089FF"/>
<path opacity="0.1" d="M163.048 69.8112H155.772V71.9797H163.048V69.8112Z" fill="#0089FF"/>
<path opacity="0.1" d="M163.048 72.9001H155.772V79.2268H163.048V72.9001Z" fill="#0089FF"/>
<path opacity="0.1" d="M163.048 89.3322H155.772V98.7501H163.048V89.3322Z" fill="#0089FF"/>
<path opacity="0.1" d="M163.048 108.853H155.772V118.271H163.048V108.853Z" fill="#0089FF"/>
<path opacity="0.1" d="M163.048 135.602C163.119 135.602 163.19 135.602 163.263 135.617C163.192 135.617 163.121 135.617 163.048 135.604V137.792H155.772V128.374H163.048V135.602Z" fill="#0089FF"/>
<path opacity="0.1" d="M163.048 147.893V155.166C160.613 154.967 158.188 154.687 155.772 154.328V147.893H163.048Z" fill="#0089FF"/>
<path opacity="0.1" d="M126.823 102.029H95.6431V102.721H126.823V102.029Z" fill="#0089FF"/>
<path opacity="0.1" d="M126.823 103.641H95.6431V106.292H126.823V103.641Z" fill="#0089FF"/>
<path opacity="0.1" d="M126.823 114.984H95.6431V119.248H126.823V114.984Z" fill="#0089FF"/>
<path opacity="0.1" d="M126.823 127.939V132.203H102.435C101.373 131.395 100.327 130.566 99.297 129.715C98.5805 129.127 97.8726 128.523 97.1539 127.939H126.823Z" fill="#0089FF"/>
<path opacity="0.1" d="M126.823 140.892V145.167H124.249C121.352 143.862 118.515 142.44 115.736 140.901L126.823 140.892Z" fill="#0089FF"/>
<path opacity="0.1" d="M187.086 75.7908H180.948V81.9213H187.086V75.7908Z" fill="#0089FF"/>
<path opacity="0.1" d="M54.1851 47.227H48.0471V53.3575H54.1851V47.227Z" fill="#0089FF"/>
<path opacity="0.1" d="M54.1851 61.4668H48.0471V67.5974H54.1851V61.4668Z" fill="#0089FF"/>
<path opacity="0.1" d="M54.1851 75.7067H48.0471V81.8372H54.1851V75.7067Z" fill="#0089FF"/>
<path opacity="0.1" d="M54.1851 89.9444H48.0471V96.075H54.1851V89.9444Z" fill="#0089FF"/>
<path opacity="0.1" d="M54.1851 104.184H48.0471V110.315H54.1851V104.184Z" fill="#0089FF"/>
<path opacity="0.1" d="M54.1851 118.424H48.0471V124.555H54.1851V118.424Z" fill="#0089FF"/>
<path opacity="0.1" d="M210.518 75.7908H204.38V81.9213H210.518V75.7908Z" fill="#0089FF"/>
<path opacity="0.1" d="M187.086 90.9123H180.948V97.0428H187.086V90.9123Z" fill="#0089FF"/>
<path opacity="0.1" d="M210.518 90.9123H204.38V97.0428H210.518V90.9123Z" fill="#0089FF"/>
<path opacity="0.1" d="M187.086 106.032H180.948V112.162H187.086V106.032Z" fill="#0089FF"/>
<path opacity="0.1" d="M210.518 106.032H204.38V112.162H210.518V106.032Z" fill="#0089FF"/>
<path opacity="0.1" d="M187.086 121.153H180.948V127.284H187.086V121.153Z" fill="#0089FF"/>
<path opacity="0.1" d="M210.518 121.153H204.38V127.284H210.518V121.153Z" fill="#0089FF"/>
<path opacity="0.1" d="M187.086 136.275H180.948V142.405H187.086V136.275Z" fill="#0089FF"/>
<path opacity="0.1" d="M210.518 136.275H204.38V142.405H210.518V136.275Z" fill="#0089FF"/>
<path opacity="0.1" d="M180.948 155.347V151.394H187.084V154.785L180.948 155.347Z" fill="#0089FF"/>
<path opacity="0.1" d="M17.3912 64.3122V67.8194H38.3954V64.3122H17.3912ZM19.4826 67.5995H17.756V64.5343H19.4826V67.5995ZM21.5739 67.5995H19.8473V64.5343H21.5739V67.5995ZM23.661 67.5995H21.9344V64.5343H23.661V67.5995ZM25.7523 67.5995H24.0257V64.5343H25.7523V67.5995ZM27.8415 67.5995H26.1149V64.5343H27.8415V67.5995ZM29.9329 67.5995H28.2063V64.5343H29.9329V67.5995ZM32.0242 67.5995H30.2976V64.5343H32.0242V67.5995ZM34.1134 67.5995H32.3868V64.5343H34.1134V67.5995ZM36.2026 67.5995H34.476V64.5343H36.2026V67.5995ZM38.2939 67.5995H36.5673V64.5343H38.2939V67.5995Z" fill="#0089FF"/>
<path opacity="0.1" d="M17.3912 74.5211V78.0283H38.3954V74.5211H17.3912ZM19.4826 77.8084H17.756V74.7432H19.4826V77.8084ZM21.5739 77.8084H19.8473V74.7432H21.5739V77.8084ZM23.661 77.8084H21.9344V74.7432H23.661V77.8084ZM25.7523 77.8084H24.0257V74.7432H25.7523V77.8084ZM27.8415 77.8084H26.1149V74.7432H27.8415V77.8084ZM29.9329 77.8084H28.2063V74.7432H29.9329V77.8084ZM32.0242 77.8084H30.2976V74.7432H32.0242V77.8084ZM34.1134 77.8084H32.3868V74.7432H34.1134V77.8084ZM36.2026 77.8084H34.476V74.7432H36.2026V77.8084ZM38.2939 77.8084H36.5673V74.7432H38.2939V77.8084Z" fill="#0089FF"/>
<path opacity="0.1" d="M17.3912 84.7322V88.2372H38.3954V84.7322H17.3912ZM19.4826 88.0152H17.756V84.9499H19.4826V88.0152ZM21.5739 88.0152H19.8473V84.9499H21.5739V88.0152ZM23.661 88.0152H21.9344V84.9499H23.661V88.0152ZM25.7523 88.0152H24.0257V84.9499H25.7523V88.0152ZM27.8415 88.0152H26.1149V84.9499H27.8415V88.0152ZM29.9329 88.0152H28.2063V84.9499H29.9329V88.0152ZM32.0242 88.0152H30.2976V84.9499H32.0242V88.0152ZM34.1134 88.0152H32.3868V84.9499H34.1134V88.0152ZM36.2026 88.0152H34.476V84.9499H36.2026V88.0152ZM38.2939 88.0152H36.5673V84.9499H38.2939V88.0152Z" fill="#0089FF"/>
<path opacity="0.1" d="M17.3912 94.9411V98.4461H38.3954V94.9411H17.3912ZM19.4826 98.2263H17.756V95.1567H19.4826V98.2263ZM21.5739 98.2263H19.8473V95.1567H21.5739V98.2263ZM23.661 98.2263H21.9344V95.1567H23.661V98.2263ZM25.7523 98.2263H24.0257V95.1567H25.7523V98.2263ZM27.8415 98.2263H26.1149V95.1567H27.8415V98.2263ZM29.9329 98.2263H28.2063V95.1567H29.9329V98.2263ZM32.0242 98.2263H30.2976V95.1567H32.0242V98.2263ZM34.1134 98.2263H32.3868V95.1567H34.1134V98.2263ZM36.2026 98.2263H34.476V95.1567H36.2026V98.2263ZM38.2939 98.2263H36.5673V95.1567H38.2939V98.2263Z" fill="#0089FF"/>
<path opacity="0.1" d="M17.4926 105.146C17.5746 105.478 17.6718 105.805 17.771 106.131V105.368H19.4976V108.431H18.5717C18.5976 108.504 18.6257 108.58 18.6559 108.646H38.4039V105.146H17.4926ZM21.5933 108.431H19.8667V105.368H21.5933V108.431ZM23.6803 108.431H21.9537V105.368H23.6803V108.431ZM25.7717 108.431H24.0451V105.368H25.7717V108.431ZM27.8609 108.431H26.1343V105.368H27.8609V108.431ZM29.9522 108.431H28.2256V105.368H29.9522V108.431ZM32.0436 108.431H30.317V105.368H32.0436V108.431ZM34.1328 108.431H32.4062V105.368H34.1328V108.431ZM36.2219 108.431H34.4953V105.368H36.2219V108.431ZM38.3133 108.431H36.5867V105.368H38.3133V108.431Z" fill="#0089FF"/>
<path opacity="0.1" d="M22.3574 115.355C22.4135 115.424 22.4653 115.501 22.5192 115.57H23.6609V117.042L24.03 117.474V115.562H25.7566V118.653H25.0465C25.1156 118.724 25.1825 118.799 25.2624 118.868H38.391V115.355H22.3574ZM27.8523 118.653H26.1257V115.574H27.8523V118.653ZM29.9436 118.653H28.217V115.574H29.9436V118.653ZM32.035 118.653H30.3084V115.574H32.035V118.653ZM34.1242 118.653H32.3976V115.574H34.1242V118.653ZM36.2134 118.653H34.4868V115.574H36.2134V118.653ZM38.3047 118.653H36.5781V115.574H38.3047V118.653Z" fill="#0089FF"/>
<path opacity="0.1" d="M33.8803 125.564C34.0789 125.676 34.2796 125.779 34.4803 125.889V125.781H36.2069V126.753C36.3321 126.807 36.4508 126.866 36.5738 126.922V125.781H38.3004V127.648C38.3332 127.663 38.3672 127.675 38.4019 127.685V125.564H33.8803Z" fill="#0089FF"/>
<path opacity="0.1" d="M163.045 135.602H163.261H163.045ZM149.174 103.232C149.215 103.369 149.252 103.507 149.289 103.643C149.256 103.507 149.217 103.369 149.174 103.232ZM45.9816 39.7018V40.6201H55.6226V39.6975L45.9816 39.7018ZM163.048 135.602H163.263H163.048ZM149.174 103.232C149.215 103.369 149.252 103.507 149.289 103.643C149.256 103.507 149.217 103.369 149.174 103.232ZM163.045 135.602H163.261H163.045ZM149.174 103.232C149.215 103.369 149.252 103.507 149.289 103.643C149.256 103.507 149.217 103.369 149.174 103.232Z" fill="#0089FF"/>
<path opacity="0.1" d="M189.803 186C201.418 186 210.833 184.49 210.833 182.626C210.833 180.763 201.418 179.253 189.803 179.253C178.189 179.253 168.773 180.763 168.773 182.626C168.773 184.49 178.189 186 189.803 186Z" fill="#0089FF"/>
<path opacity="0.1" d="M94.9567 182.626C106.571 182.626 115.987 181.116 115.987 179.253C115.987 177.39 106.571 175.879 94.9567 175.879C83.3422 175.879 73.9267 177.39 73.9267 179.253C73.9267 181.116 83.3422 182.626 94.9567 182.626Z" fill="#0089FF"/>
<path d="M119.168 90.0501C119.163 90.0287 119.152 90.0092 119.136 89.994C118.814 89.6771 114.713 83.8851 114.713 83.8851C114.713 83.8851 114.498 83.2384 114.148 82.3977C114.26 82.2528 114.344 82.0883 114.396 81.9127C114.415 81.8383 114.429 81.7627 114.437 81.6864C114.437 81.6626 114.454 81.6432 114.461 81.6195C114.536 81.3272 114.528 81.0198 114.439 80.7314C114.415 80.8054 114.386 80.8775 114.351 80.947C114.27 80.6959 114.161 80.4544 114.027 80.227C113.483 79.2915 112.706 78.5025 112.134 77.5907C111.268 76.174 110.924 74.5 111.161 72.857C111.161 72.9411 111.161 73.0273 111.161 73.1114C111.183 72.7855 111.226 72.4615 111.29 72.1414C111.381 71.777 111.501 71.4208 111.651 71.0765C112.165 69.9017 112.995 68.8778 113.5 67.6987C113.67 67.301 113.799 66.8871 113.885 66.4635C114.063 65.756 114.127 65.0249 114.077 64.2972C114.077 64.4696 114.049 64.642 114.023 64.8123C113.968 63.0627 113.261 61.3966 112.039 60.1412C110.276 58.3714 107.744 57.6838 105.323 57.3216C104.305 57.2031 103.333 56.8326 102.496 56.2438C101.565 55.6424 100.363 55.498 99.2754 55.6295C98.0252 55.7645 96.8635 56.3381 95.997 57.2484C94.8467 58.5115 94.3481 60.3007 93.0057 61.3655C92.192 62.0122 91.1604 62.314 90.2129 62.7537C89.2654 63.1935 88.3698 63.8315 88.0655 64.7757C88.0655 64.7757 88.0655 64.7628 88.0655 64.7563V64.8102L88.0525 64.8447C87.7374 65.9613 88.346 67.0973 88.6633 68.2117C88.9935 69.365 89.0151 70.5829 89.0324 71.7749C89.0561 73.2321 89.0777 74.6914 89.0539 76.1508C89.0431 76.7242 89.0237 77.304 88.9806 77.8753C88.4697 78.0295 87.9735 78.2286 87.4978 78.4702C87.0144 78.7849 85.2058 80.7357 85.2058 80.7357L81.6684 94.2341L81.7159 94.288L81.6684 94.4712L81.8475 94.4302C82.3482 94.9691 83.8439 96.5039 85.4583 97.461L85.6094 100.108C85.6094 100.108 85.7907 102.764 88.236 103.861C88.2921 104.781 88.4669 108.519 87.6575 110C87.0971 111.082 86.8335 112.293 86.8935 113.509C86.8935 113.509 87.1763 115.756 86.8547 116.937C86.6668 117.726 86.6528 118.547 86.8137 119.342C86.8137 119.342 86.8137 119.603 86.8137 120.052C86.8137 122.442 86.8417 130.103 86.8137 130.97C86.7727 131.994 86.8137 147.137 86.8137 147.137C86.8137 147.137 86.613 154.705 85.9698 156.755C85.3266 158.805 85.4885 165.593 85.4885 165.593C85.4885 165.593 85.0849 173.679 86.5115 175.274C86.5115 175.345 86.4986 175.418 86.4964 175.489C86.4964 175.522 86.4964 175.558 86.4964 175.591C86.4791 176.205 86.5978 176.858 87.1266 177.059C88.2057 177.472 89.6324 178.714 89.9021 179.07C90.1719 179.425 91.741 180.311 93.787 180.074C95.0687 179.93 96.3586 179.871 97.6481 179.897C97.6481 179.897 98.4553 179.751 98.1941 178.749C98.0258 178.123 97.3956 177.162 96.9467 176.53C97.0287 176.552 97.1085 176.569 97.1841 176.584L97.2618 176.599H97.3222C97.3553 176.601 97.3884 176.601 97.4215 176.599H97.4647C97.5049 176.603 97.5453 176.603 97.5855 176.599C98.1272 176.548 100.147 177.488 100.508 178.108C100.868 178.729 102.139 179.201 103.098 179.32C103.667 179.389 105.105 179.272 106.311 179.117C106.919 179.055 107.521 178.945 108.111 178.79C108.396 178.682 108.457 178.337 108.375 177.949C108.278 177.456 108.014 177.012 107.628 176.69C107.278 176.442 106.816 175.789 106.475 175.254L106.385 175.11C106.987 174.537 108.075 172.661 108.405 172.273C108.806 171.801 107.757 154.537 107.757 154.537V145.882L109.365 137.691L110.49 133.356L111.454 126.812C111.454 126.812 113.142 119.168 112.622 118.418C112.622 118.403 112.19 110.533 111.737 108.642C111.541 107.799 111.59 105.902 111.707 104.057C111.829 103.936 111.914 103.783 111.952 103.616C111.99 103.449 111.98 103.275 111.923 103.113C111.891 103.002 111.849 102.895 111.798 102.792C111.798 102.759 111.798 102.725 111.798 102.693C112.73 102.264 113.704 101.933 114.705 101.705C116.313 101.391 115.911 100.563 115.911 100.563C115.911 100.563 116.274 99.8537 116.513 99.4204C116.753 98.9872 116.554 95.1631 116.513 94.8484C116.498 94.7212 116.399 94.0185 116.285 93.2209C116.8 92.8545 117.472 92.3997 118.203 91.9685C119.595 91.1451 119.282 90.2764 119.168 90.0501ZM98.1898 144.701C98.1898 144.701 96.9834 147.775 97.4668 148.562C97.9503 149.348 97.387 152.269 97.387 152.269L96.9834 156.604C96.9834 156.604 95.8589 164.644 96.2603 166.535C96.5755 168.018 96.692 172.448 96.7287 174.295C96.7011 174.306 96.6744 174.319 96.6488 174.334L96.5949 174.362C96.7805 173.635 96.7028 172.165 95.7812 169.208L95.7035 156.992C95.7035 156.992 95.5611 142.882 96.6769 141.304C97.7927 139.726 98.1877 137.046 98.1877 137.046C98.1877 137.046 97.9459 140.911 97.7884 141.935C97.6308 142.959 98.1898 144.701 98.1898 144.701ZM95.9431 175.065C95.9323 175.091 95.9193 175.116 95.9107 175.14L95.8503 175.062C95.8811 175.065 95.9121 175.066 95.9431 175.065Z" fill="url(#paint0_linear_12_2)"/>
<path d="M108.247 179.906C107.624 180.145 104.242 180.553 103.296 180.439C102.351 180.324 101.099 179.846 100.743 179.221C100.387 178.596 98.3905 177.651 97.8553 177.712C97.6359 177.718 97.4169 177.688 97.2078 177.621C96.8385 177.51 96.4779 177.371 96.1286 177.207C96.0799 176.936 96.088 176.657 96.1524 176.388C96.1648 176.334 96.1807 176.281 96.1999 176.229C96.3258 175.875 96.5864 175.585 96.925 175.422L97.0027 175.386C97.1524 175.321 97.3087 175.274 97.4689 175.244C99.1653 174.918 106.165 175.571 106.165 175.571C106.165 175.571 106.361 175.923 106.631 176.358C106.967 176.897 107.425 177.554 107.77 177.802C108.153 178.129 108.412 178.576 108.506 179.07C108.588 179.451 108.528 179.801 108.247 179.906Z" fill="white"/>
<path opacity="0.1" d="M108.247 179.906C107.624 180.145 104.244 180.553 103.298 180.439C102.353 180.324 101.101 179.844 100.743 179.221C100.385 178.598 98.3927 177.651 97.8574 177.712C97.3222 177.772 96.1308 177.207 96.1308 177.207C96.1308 177.207 95.9452 176.345 96.4848 175.757L97.5639 176.522C97.5639 176.522 100.452 177.416 100.987 178.246C101.522 179.076 102.498 179.54 103.907 179.624C104.96 179.693 107.38 179.283 108.513 179.078C108.588 179.451 108.53 179.801 108.247 179.906Z" fill="black"/>
<path d="M97.9157 181.005C96.6426 180.981 95.3693 181.04 94.1042 181.184C92.0776 181.422 90.5301 180.538 90.2603 180.173C89.9906 179.809 88.5942 178.578 87.5215 178.147C86.9971 177.945 86.874 177.285 86.8978 176.668C86.8978 176.636 86.8978 176.599 86.8978 176.567C86.9177 176.177 86.9755 175.789 87.0704 175.41L95.4682 175.231L96.1955 176.216L96.3078 176.367L96.7502 176.968C96.7502 176.968 96.9509 177.231 97.2142 177.615C97.6588 178.261 98.2804 179.216 98.4466 179.848C98.7121 180.859 97.9157 181.005 97.9157 181.005Z" fill="white"/>
<path opacity="0.1" d="M97.9157 181.005C96.6426 180.981 95.3693 181.04 94.1042 181.184C92.0798 181.422 90.5301 180.538 90.2625 180.173C89.9949 179.809 88.5942 178.568 87.5215 178.151C86.9971 177.949 86.874 177.289 86.8978 176.673C87.4978 176.813 88.7582 177.171 89.2524 177.794C89.8999 178.626 91.0589 180.025 92.7056 180.113C94.0351 180.184 97.2725 179.947 98.4596 179.852C98.7142 180.859 97.9157 181.005 97.9157 181.005Z" fill="black"/>
<path opacity="0.1" d="M96.9165 175.414C96.8193 176.134 96.5193 176.328 96.3035 176.371C96.2508 176.381 96.1965 176.381 96.1438 176.371C96.1154 176.369 96.0873 176.365 96.0596 176.358C96.0596 176.358 88.5187 178.022 86.9949 176.675C86.9563 176.64 86.9202 176.603 86.887 176.563C86.9069 176.172 86.9647 175.785 87.0597 175.405L95.4575 175.226L96.1848 176.211C96.3108 175.858 96.5714 175.568 96.91 175.405L96.9165 175.414Z" fill="black"/>
<path opacity="0.1" d="M106.629 176.349C106.46 176.535 106.32 176.64 106.231 176.604C105.834 176.444 102.58 175.89 101.546 176.367C100.512 176.843 97.0136 176.444 97.0136 176.444C97.0136 176.444 97.0136 176.03 96.9941 175.366C97.1438 175.302 97.3001 175.254 97.4603 175.224C99.1567 174.899 106.156 175.552 106.156 175.552C106.156 175.552 106.361 175.914 106.629 176.349Z" fill="black"/>
<path d="M111.554 127.59L110.6 134.173L109.49 138.536L107.902 146.783V155.513C107.902 155.513 108.934 172.883 108.536 173.357C108.139 173.832 106.631 176.533 106.234 176.375C105.836 176.218 102.582 175.662 101.548 176.136C100.514 176.61 97.0157 176.216 97.0157 176.216C97.0157 176.216 96.9358 169.475 96.5387 167.572C96.1416 165.668 97.2531 157.578 97.2531 157.578L97.6502 153.218C97.6502 153.218 98.2071 150.282 97.7301 149.488C97.2531 148.695 98.4445 145.608 98.4445 145.608C98.4445 145.608 97.8898 143.86 98.0495 142.83C98.2092 141.799 98.4445 137.913 98.4445 137.913C98.4445 137.913 98.0495 140.612 96.9466 142.196C95.8438 143.78 95.984 157.979 95.984 157.979L96.0617 170.266C98.0495 176.772 96.0617 176.136 96.0617 176.136C96.0617 176.136 88.5208 177.802 86.9971 176.453C85.4733 175.103 85.9093 166.61 85.9093 166.61C85.9093 166.61 85.7518 159.79 86.3863 157.729C87.0208 155.669 87.2215 148.053 87.2215 148.053C87.2215 148.053 87.1805 132.824 87.2215 131.795C87.2517 130.933 87.2215 123.214 87.2215 120.802C87.2215 120.353 87.2215 120.088 87.2215 120.088L88.1323 117.829L98.9236 116.48H104.086C104.086 116.48 111.856 118.303 112.659 119.09C112.676 119.103 112.69 119.119 112.702 119.138C113.222 119.899 111.554 127.59 111.554 127.59Z" fill="#0089FF"/>
<path opacity="0.1" d="M98.451 162.17C98.451 162.17 100.825 167.88 101.945 168.277C103.065 168.673 98.451 162.17 98.451 162.17Z" fill="black"/>
<path opacity="0.1" d="M99.3293 170.577C99.3293 170.577 107.345 170.973 107.265 171.846C107.185 172.719 99.3293 170.577 99.3293 170.577Z" fill="black"/>
<path opacity="0.1" d="M88.605 168.294C88.9222 168.594 94.7193 169.156 94.2423 169.704C93.7654 170.251 89.082 171.316 89.082 171.316L88.605 168.294Z" fill="black"/>
<path opacity="0.1" d="M87.6532 158.443C87.6532 158.68 88.8446 166.056 89.164 166.373C89.4834 166.69 92.1014 167.007 92.1014 167.007L87.6532 158.443Z" fill="black"/>
<path d="M96.297 57.617C95.1596 58.8866 94.6675 60.6865 93.3423 61.76C92.5373 62.4067 91.5186 62.715 90.5819 63.1547C89.6453 63.5944 88.7172 64.2648 88.4388 65.2607C88.128 66.3816 88.728 67.5262 89.0431 68.6472C89.369 69.8069 89.3884 71.0183 89.4078 72.2319C89.4294 73.6999 89.4532 75.1678 89.4273 76.6358C89.3884 78.9229 89.1985 81.3156 87.9834 83.2535C92.3711 84.6482 97.0373 84.8378 101.639 85.0168C102.523 85.0798 103.411 85.0574 104.291 84.9499C105.054 84.7982 105.808 84.6075 106.551 84.3787C108.02 83.9905 109.534 83.797 111.053 83.8032C111.716 83.8032 112.391 83.8441 113.03 83.6717C113.669 83.4992 114.284 83.0573 114.457 82.4193C114.61 81.8459 114.385 81.2358 114.092 80.7207C113.557 79.7808 112.797 78.9962 112.223 78.0693C111.637 77.0902 111.289 75.9873 111.208 74.8495C111.126 73.7117 111.314 72.5707 111.754 71.5184C112.264 70.335 113.084 69.3046 113.585 68.119C114.097 66.8461 114.234 65.4529 113.978 64.1049C113.721 62.7569 113.083 61.5106 112.139 60.5141C110.397 58.7336 107.898 58.0438 105.506 57.6773C104.499 57.5585 103.539 57.1878 102.713 56.5995C101.796 55.996 100.607 55.8494 99.5322 55.983C98.2923 56.1218 97.1438 56.7018 96.297 57.617Z" fill="#3F3D56"/>
<g opacity="0.1">
<path opacity="0.1" d="M111.821 70.2746C111.381 71.3133 111.193 72.4411 111.271 73.5662C111.319 72.7616 111.505 71.9713 111.821 71.2296C112.328 70.0461 113.149 69.0158 113.649 67.8302C114.059 66.8402 114.231 65.7684 114.152 64.7003C114.108 65.449 113.938 66.1849 113.649 66.8774C113.149 68.063 112.328 69.0912 111.821 70.2746Z" fill="black"/>
<path opacity="0.1" d="M89.4726 71.9388C89.4855 72.7837 89.4985 73.6309 89.5006 74.4759C89.5006 73.3119 89.4898 72.15 89.4726 70.9881C89.4553 69.7832 89.4337 68.5631 89.1078 67.4012C88.892 66.664 88.5726 65.916 88.4604 65.1723C88.2683 66.2286 88.8143 67.2999 89.1078 68.354C89.4337 69.5051 89.4553 70.7338 89.4726 71.9388Z" fill="black"/>
<path opacity="0.1" d="M113.103 82.4387C112.456 82.6133 111.791 82.5745 111.129 82.5701C109.61 82.5605 108.097 82.7504 106.629 83.1349C105.885 83.3628 105.131 83.5527 104.369 83.704C103.488 83.8132 102.599 83.8363 101.714 83.773C97.2682 83.5984 92.7596 83.4108 88.5014 82.1412C88.3749 82.4231 88.2308 82.6966 88.0697 82.9603C92.4574 84.3528 97.1236 84.5447 101.723 84.7236C102.608 84.7869 103.497 84.7638 104.377 84.6546C105.137 84.5048 105.889 84.3155 106.629 84.0877C108.094 83.7017 109.604 83.5097 111.12 83.5165C111.782 83.5165 112.456 83.5574 113.095 83.3828C113.734 83.2082 114.349 82.7706 114.521 82.1326C114.594 81.8371 114.587 81.5275 114.5 81.2358C114.308 81.8394 113.714 82.2597 113.103 82.4387Z" fill="black"/>
</g>
<path d="M106.711 79.8843C106.551 80.2421 105.878 83.3332 105.718 83.6501C105.558 83.967 104.686 89.0391 104.606 89.3236C104.526 89.6082 98.8589 88.1337 98.8589 88.1337L95.4467 85.2776L91.9395 81.792C91.9395 81.792 91.8359 78.647 94.4194 77.6381C94.595 77.5693 94.7753 77.5131 94.9589 77.47C98.0927 76.7177 97.7776 67.2007 97.7776 67.2007L104.209 69.975C104.209 69.975 103.018 75.5278 103.059 76.5991C103.07 76.9591 103.352 77.1833 103.721 77.3191C104.292 77.4813 104.886 77.5454 105.478 77.5088C105.478 77.5088 106.87 79.5286 106.711 79.8843Z" fill="#FBBEBE"/>
<path d="M118.225 90.3131L119.138 90.5523C119.138 90.5523 119.813 91.5784 118.225 92.5333C117.216 93.1452 116.248 93.8213 115.326 94.5574L110.632 95.9844L109.728 93.1498L114.096 89.8388L118.225 90.3131Z" fill="#0089FF"/>
<path opacity="0.1" d="M118.225 90.3131L119.138 90.5523C119.138 90.5523 119.813 91.5784 118.225 92.5333C117.216 93.1452 116.248 93.8213 115.326 94.5574L110.632 95.9844L109.728 93.1498L114.096 89.8388L118.225 90.3131Z" fill="black"/>
<path d="M83.9669 93.0507L82.1411 94.8355C82.1411 94.8355 85.4346 98.6423 87.9683 98.8794C90.5021 99.1165 92.1359 95.9844 92.1359 95.9844L89.9431 92.5355L83.9669 93.0507Z" fill="#0089FF"/>
<path opacity="0.1" d="M83.9669 93.0507L82.1411 94.8355C82.1411 94.8355 85.4346 98.6423 87.9683 98.8794C90.5021 99.1165 92.1359 95.9844 92.1359 95.9844L89.9431 92.5355L83.9669 93.0507Z" fill="black"/>
<path opacity="0.1" d="M101.311 73.4196C104.819 73.4196 107.662 70.5794 107.662 67.0757C107.662 63.5721 104.819 60.7318 101.311 60.7318C97.8027 60.7318 94.9589 63.5721 94.9589 67.0757C94.9589 70.5794 97.8027 73.4196 101.311 73.4196Z" fill="black"/>
<path d="M101.311 72.9432C104.819 72.9432 107.662 70.103 107.662 66.5993C107.662 63.0957 104.819 60.2554 101.311 60.2554C97.8027 60.2554 94.9589 63.0957 94.9589 66.5993C94.9589 70.103 97.8027 72.9432 101.311 72.9432Z" fill="#FBBEBE"/>
<path opacity="0.1" d="M112.706 119.858C111.26 120.023 109.835 120.342 108.457 120.808C106.083 121.597 87.4784 120.821 87.2194 120.808C87.2194 120.36 87.2194 120.095 87.2194 120.095L88.1302 117.836L98.9215 116.486H104.084C104.084 116.486 111.854 118.31 112.657 119.097C112.689 119.571 112.706 119.858 112.706 119.858Z" fill="black"/>
<path opacity="0.1" d="M106.711 79.8843C106.551 80.2421 105.878 83.3332 105.718 83.6501C105.558 83.967 104.686 89.0391 104.606 89.3236C104.526 89.6082 98.8589 88.1337 98.8589 88.1337L95.4467 85.2776L91.9395 81.792C91.9395 81.792 91.8359 78.647 94.4194 77.6381L100.834 85.0038L103.721 77.3191C104.292 77.4812 104.886 77.5454 105.478 77.5088C105.478 77.5088 106.87 79.5286 106.711 79.8843Z" fill="black"/>
<path d="M100.834 85.2409L94.2682 77.6964C93.8839 77.4513 93.4447 77.3055 92.99 77.272C92.5353 77.2386 92.0794 77.3184 91.6632 77.5045C90.1935 78.1404 88.3676 78.6556 87.8906 78.9725C87.4136 79.2893 85.6266 81.2509 85.6266 81.2509L90.9488 95.1567L88.605 104.316C88.605 104.316 88.9633 108.996 88.0503 110.701C87.4944 111.791 87.234 113.007 87.2949 114.229C87.2949 114.229 87.5733 116.491 87.2561 117.678C87.0707 118.473 87.0567 119.297 87.2151 120.097C87.2151 120.097 106.076 120.89 108.457 120.097C109.835 119.629 111.26 119.31 112.706 119.146C112.706 119.146 112.275 111.214 111.843 109.31C111.411 107.407 112.201 100.151 112.201 100.151L111.685 92.3781L114.78 84.4024C114.78 84.4024 113.103 79.2893 111.355 78.7742C111.355 78.7742 108.18 78.0197 107.505 77.664C106.829 77.3083 104.844 76.9893 104.844 76.9893L103.801 77.3385L100.834 85.2409Z" fill="#0089FF"/>
<path opacity="0.1" d="M109.994 92.1156L96.1783 91.1774C95.8287 91.1536 95.526 91.4175 95.5022 91.7667L94.019 113.553C93.9952 113.902 94.2594 114.204 94.609 114.228L108.424 115.166C108.774 115.19 109.077 114.926 109.101 114.577L110.584 92.7909C110.608 92.4417 110.343 92.1394 109.994 92.1156Z" fill="black"/>
<path d="M110.47 91.6425L96.6541 90.7042C96.3044 90.6805 96.0017 90.9443 95.9779 91.2935L94.4947 113.079C94.471 113.429 94.7351 113.731 95.0847 113.755L108.9 114.693C109.25 114.717 109.553 114.453 109.576 114.104L111.06 92.3178C111.083 91.9686 110.819 91.6662 110.47 91.6425Z" fill="#3F3D56"/>
<path d="M110.014 93.3502L96.8743 92.4579L95.524 112.291L108.663 113.183L110.014 93.3502Z" fill="white"/>
<path opacity="0.1" d="M108.835 98.4125L98.1025 97.6621L97.8931 100.65L108.626 101.4L108.835 98.4125Z" fill="black"/>
<path opacity="0.1" d="M108.447 110.285L106.744 110.17L106.638 111.727L108.341 111.842L108.447 110.285Z" fill="black"/>
<path opacity="0.1" d="M106.767 106.527L98.0484 105.935L97.9424 107.492L106.661 108.084L106.767 106.527Z" fill="black"/>
<path d="M108.387 92.6087L99.3091 91.9921L99.1461 94.3858L108.224 95.0023L108.387 92.6087Z" fill="#3F3D56"/>
<path opacity="0.1" d="M108.387 92.6087L99.3091 91.9921L99.1461 94.3858L108.224 95.0023L108.387 92.6087Z" fill="black"/>
<path opacity="0.1" d="M101.628 119.42C101.628 119.42 101.548 131.159 98.451 137.9C98.451 137.9 102.185 129.017 102.185 128.661C102.185 128.305 104.248 124.576 103.696 123.466C103.143 122.356 101.628 119.42 101.628 119.42Z" fill="black"/>
<path opacity="0.1" d="M101.796 65.0128C101.678 63.9738 101.932 62.9264 102.515 62.0575C102.446 62.9284 102.692 63.7952 103.21 64.4996C103.727 65.204 104.481 65.6991 105.334 65.8945C105.261 65.8314 105.209 65.7478 105.185 65.6547C105.16 65.5616 105.165 65.4633 105.198 65.3728C105.64 65.8729 105.979 66.4657 106.48 66.9054C106.98 67.3452 107.731 67.6082 108.321 67.2956C109.121 66.8645 109.13 65.7285 108.923 64.8447C108.478 62.9625 107.566 61.2226 106.27 59.7855C105.947 59.3511 105.527 58.9974 105.044 58.752C104.561 58.5067 104.028 58.3764 103.486 58.3714C102.26 58.2766 100.987 58.3843 99.8884 58.934C99.2702 59.2709 98.6911 59.6751 98.1618 60.139L95.1402 62.6007C94.8495 62.8099 94.6006 63.0717 94.4064 63.3724C94.2768 63.6238 94.199 63.8987 94.1776 64.1808C94.1005 64.987 94.2498 65.7987 94.6089 66.5249C94.9681 67.251 95.5228 67.8628 96.2107 68.2915C96.1962 67.6543 96.3716 67.0272 96.7148 66.4898C97.058 65.9524 97.5534 65.5291 98.138 65.2736C98.2296 65.3501 98.3037 65.4453 98.3555 65.5527C98.4072 65.6602 98.4354 65.7774 98.438 65.8966L99.0747 64.7628C99.1694 64.5564 99.3187 64.3798 99.5064 64.2519C99.8992 64.0363 100.389 64.2907 100.724 64.5946C101.058 64.8986 101.384 65.278 101.833 65.3254L101.85 63.6375" fill="black"/>
<path d="M101.796 64.7757C101.677 63.736 101.932 62.6878 102.515 61.8182C102.321 63.5427 103.622 65.3232 105.336 65.6552C105.263 65.5927 105.211 65.5094 105.187 65.4166C105.162 65.3238 105.167 65.2258 105.2 65.1357C105.642 65.6358 105.981 66.2264 106.482 66.6683C106.983 67.1102 107.734 67.3711 108.323 67.0563C109.124 66.6252 109.132 65.4892 108.925 64.6076C108.48 62.7254 107.568 60.9855 106.272 59.5484C105.87 59.0589 105.364 58.6656 104.79 58.3973C104.374 58.2438 103.937 58.1551 103.495 58.1343C102.269 58.0395 100.996 58.1451 99.897 58.6948C99.2792 59.0332 98.7002 59.438 98.1704 59.9019L95.1488 62.3636C94.8576 62.5722 94.6086 62.8341 94.415 63.1353C94.2851 63.3866 94.2073 63.6616 94.1862 63.9437C94.1092 64.7495 94.2587 65.5609 94.6178 66.2867C94.9769 67.0125 95.5315 67.6239 96.2193 68.0522C96.2053 67.4151 96.381 66.7882 96.7241 66.251C97.0673 65.7137 97.5623 65.2903 98.1466 65.0344C98.2379 65.1111 98.3118 65.2064 98.3635 65.3137C98.4152 65.4211 98.4436 65.5382 98.4466 65.6573L99.0812 64.5278C99.1753 64.3211 99.3246 64.1444 99.5128 64.0169C99.9056 63.8014 100.396 64.0557 100.73 64.3597C101.065 64.6636 101.39 65.0408 101.839 65.0904L101.857 63.4004" fill="#3F3D56"/>
<path d="M104.805 104.79C104.25 104.51 95.0776 105.939 95.0776 105.939C95.0776 105.939 93.5668 105.508 89.9151 104.909C86.2633 104.309 86.0302 100.744 86.0302 100.744L85.6309 93.6068L86.8633 92.529L92.1424 95.978C92.1424 95.978 92.2244 97.7218 92.1424 98.0366C92.0906 98.2521 91.9525 98.5086 91.9654 98.6832C91.9694 98.7305 91.9889 98.7752 92.0209 98.8102C92.0529 98.8453 92.0956 98.8689 92.1424 98.8772C92.5006 98.9678 97.3826 99.7567 97.3826 99.7567C97.3826 99.7567 108.698 98.9829 111.519 102.79C111.743 103.069 111.912 103.388 112.018 103.729C112.717 106.331 105.308 105.038 104.805 104.79Z" fill="#FBBEBE"/>
<path opacity="0.1" d="M112.024 103.745C111.593 103.936 111.325 104.074 111.325 104.074C111.325 104.074 107.276 103.956 105.001 103.132C102.726 102.309 99.9617 102.456 99.9617 102.456C99.9617 102.456 90.4827 100.826 91.9524 98.6983C91.9564 98.7456 91.9759 98.7903 92.0079 98.8253C92.0399 98.8604 92.0826 98.884 92.1294 98.8923C92.4877 98.9829 97.3697 99.7718 97.3697 99.7718C97.3697 99.7718 108.685 98.998 111.506 102.805C111.737 103.083 111.912 103.402 112.024 103.745Z" fill="black"/>
<path d="M115.961 91.1861C115.961 91.1861 116.518 95.1114 116.557 95.4304C116.595 95.7495 116.796 99.5929 116.557 100.03C116.317 100.468 115.961 101.179 115.961 101.179C115.961 101.179 116.358 102.011 114.769 102.331C113.181 102.65 111.316 103.598 111.316 103.598C111.316 103.598 107.265 103.479 105.003 102.647C102.742 101.815 99.9617 101.973 99.9617 101.973C99.9617 101.973 87.9294 99.9098 93.092 97.392C98.2545 94.8743 101.906 98.2844 101.906 98.2844L107.662 97.9288C107.662 97.9288 109.808 96.6182 110.403 96.7389C110.824 96.7924 111.251 96.7235 111.634 96.5406L111.675 92.376L115.961 91.1861Z" fill="#FBBEBE"/>
<path opacity="0.1" d="M86.7726 81.5505L85.6201 81.4902L82.1281 95.0704C82.1281 95.0704 85.8985 94.1177 87.5237 95.0704C89.1488 96.0232 92.1294 96.2194 92.1294 96.2194L91.0179 85.394L86.7726 81.5505Z" fill="black"/>
<path d="M86.7726 81.3113L85.6201 81.2509L82.1281 94.8312C82.1281 94.8312 85.8985 93.8784 87.5237 94.8312C89.1488 95.7839 92.1294 95.9801 92.1294 95.9801L91.0179 85.1547L86.7726 81.3113Z" fill="#0089FF"/>
<path opacity="0.1" d="M113.183 84.286L114.769 84.6438C114.769 84.6438 118.821 90.464 119.138 90.7894C119.455 91.1149 117.627 92.2984 116.874 92.2984C116.121 92.2984 112.428 92.7295 111.355 93.7254C110.282 94.7213 110.729 89.7095 110.729 89.5952C110.729 89.481 112.061 86.3187 112.061 86.3187L113.183 84.286Z" fill="black"/>
<path d="M113.183 84.0489L114.769 84.4046C114.769 84.4046 118.821 90.2354 119.138 90.5523C119.455 90.8692 117.627 92.0612 116.874 92.0612C116.121 92.0612 112.428 92.4924 111.355 93.4882C110.282 94.4841 110.729 89.4724 110.729 89.3581C110.729 89.2439 112.07 86.0708 112.07 86.0708L113.183 84.0489Z" fill="#0089FF"/>
<g opacity="0.1">
<path opacity="0.1" d="M102.504 61.8376C102.495 61.6723 102.498 61.5066 102.515 61.3418C102.186 61.8343 101.96 62.3878 101.85 62.9693V63.4694C101.85 63.4694 101.85 63.4586 101.85 63.4522V63.5707C101.85 63.9199 101.85 64.2713 101.839 64.6205H101.809V64.7822C101.809 64.7261 101.809 64.6722 101.798 64.6162C101.367 64.5472 101.058 64.1851 100.737 63.8962C100.415 63.6074 99.9121 63.3314 99.5193 63.5535C99.3311 63.6809 99.1817 63.8577 99.0876 64.0643L98.4466 65.1939C98.4438 65.075 98.4156 64.9581 98.3638 64.8511C98.3121 64.744 98.238 64.6492 98.1466 64.5731C97.562 64.8285 97.0666 65.2519 96.7234 65.7892C96.3802 66.3266 96.2047 66.9537 96.2193 67.5909C95.6296 67.2219 95.1363 66.718 94.7802 66.1209C94.424 65.5238 94.2153 64.8507 94.1711 64.157C94.1336 64.9315 94.3036 65.702 94.6637 66.389C95.0237 67.076 95.5607 67.6546 96.2193 68.0651C96.2053 67.4281 96.381 66.8012 96.7241 66.2639C97.0672 65.7267 97.5623 65.3032 98.1466 65.0473C98.2379 65.1241 98.3118 65.2193 98.3635 65.3267C98.4152 65.434 98.4435 65.5511 98.4466 65.6703L99.0811 64.5407C99.1753 64.3341 99.3246 64.1573 99.5128 64.0299C99.9056 63.8143 100.396 64.0687 100.73 64.3726C101.065 64.6765 101.39 65.0538 101.839 65.1033C101.839 64.5515 101.845 64.0011 101.857 63.4522C101.963 62.8762 102.183 62.3273 102.504 61.8376Z" fill="black"/>
<path opacity="0.1" d="M101.775 64.0083C101.785 63.8617 101.803 63.7151 101.824 63.5772L101.848 62.9822C101.783 63.3202 101.758 63.6646 101.775 64.0083Z" fill="black"/>
<path opacity="0.1" d="M108.323 66.58C107.734 66.8947 106.983 66.6317 106.482 66.1919C105.981 65.7522 105.642 65.1594 105.2 64.6593C105.167 64.7498 105.163 64.8481 105.187 64.9412C105.211 65.0343 105.263 65.1179 105.336 65.181C105.293 65.181 105.252 65.1594 105.211 65.1486C105.642 65.6444 105.985 66.2264 106.482 66.6576C106.978 67.0887 107.734 67.3603 108.323 67.0456C108.912 66.7309 109.08 65.9936 109.029 65.2758C108.99 65.8406 108.787 66.3299 108.323 66.58Z" fill="black"/>
<path opacity="0.1" d="M105.198 65.1443C104.476 64.9478 103.832 64.5358 103.351 63.9632C102.87 63.3907 102.576 62.6852 102.508 61.9411C102.385 63.6332 103.663 65.3297 105.336 65.6552C105.264 65.5934 105.213 65.5118 105.189 65.4208C105.164 65.3298 105.167 65.2335 105.198 65.1443Z" fill="black"/>
</g>
<path d="M208.846 100.375C208.846 100.375 207.995 100.257 207.995 99.0216C207.995 97.7865 207.387 95.4735 207.387 95.4735C207.387 95.4735 206.86 91.449 206.133 90.811C205.405 90.1729 204.471 86.4265 204.471 86.4265C204.471 86.4265 204.311 84.3938 203.985 83.9562C203.659 83.5186 203.219 82.4473 202.569 80.9189C201.92 79.3906 199.218 78.343 199.218 78.343C199.218 78.343 194.321 75.5062 192.933 74.5815C192.806 74.5049 192.687 74.4153 192.579 74.3142C192.337 73.9995 191.284 73.993 191.284 73.993C191.174 73.2968 191.068 72.4992 191.034 71.7771C191.034 71.6995 191.034 71.6219 191.034 71.5443C192.581 70.6307 193.747 69.1902 194.316 67.4874C194.342 67.4055 194.364 67.3214 194.387 67.2374C194.482 67.2082 194.57 67.1593 194.644 67.0939C194.718 67.0285 194.778 66.9481 194.819 66.858C194.942 66.5799 194.946 66.2566 195.102 65.9958C195.283 65.6897 195.628 65.5258 195.9 65.2973C196.587 64.7132 196.764 63.7324 196.731 62.8421C196.71 62.1178 196.593 61.3892 196.639 60.6714C196.639 60.6111 196.639 60.5507 196.652 60.4904C196.664 60.3847 196.68 60.2748 196.699 60.1713C196.805 59.6367 197.036 59.1323 197.165 58.6021C197.295 58.0718 197.308 57.4747 197.005 57.0177C196.563 56.3473 195.641 56.2137 194.832 56.1555C193.915 56.0779 193.105 56.177 192.508 55.4161C192.233 55.0187 191.924 54.6464 191.584 54.3038C191.463 54.1917 190.289 53.4739 190.289 53.4286C189.14 52.8952 187.837 52.7949 186.62 53.1462C186.009 53.323 185.437 53.6118 184.818 53.7563C183.488 54.071 181.956 53.7304 180.825 54.4913C180.195 54.9225 179.817 55.6101 179.463 56.2762C179.175 56.8251 178.883 57.3748 178.587 57.9252C178.108 58.8284 177.624 59.7467 177.424 60.7469C177.382 60.9653 177.355 61.1865 177.344 61.4086C177.344 61.4884 177.344 61.5682 177.344 61.6479C177.344 61.6824 177.344 61.7169 177.344 61.7514C177.344 61.8247 177.344 61.898 177.357 61.9669C177.37 62.0359 177.357 62.0553 177.372 62.1006C177.387 62.1459 177.391 62.2472 177.404 62.3161C177.417 62.3851 177.443 62.508 177.469 62.6007C177.469 62.6416 177.495 62.6804 177.508 62.7214C177.521 62.7624 177.555 62.8658 177.583 62.937C177.611 63.0081 177.614 63.0124 177.631 63.049C177.663 63.1245 177.702 63.1978 177.741 63.2646C177.758 63.2926 177.771 63.3207 177.788 63.3487C177.848 63.4496 177.914 63.5461 177.987 63.6375C178.447 64.2131 179.129 64.5795 179.632 65.1184C179.632 65.14 179.632 65.1615 179.632 65.1831C179.632 65.2413 179.632 65.2995 179.632 65.3598C179.662 66.5618 179.987 67.7381 180.576 68.7863C181.166 69.8344 182.004 70.7228 183.016 71.374C183.016 71.4559 183.026 71.5399 183.031 71.624C183.073 72.2631 183.065 72.9046 183.007 73.5425C182.919 73.4394 182.809 73.3572 182.685 73.302C182.561 73.2468 182.426 73.22 182.29 73.2235C182.198 73.2189 182.105 73.2268 182.014 73.2472L181.995 73.2321V73.2515C181.52 73.3679 180.935 73.8615 180.376 75.2648C180.376 75.2648 178.675 77.179 177.38 77.0992C176.085 77.0195 172.807 79.0932 172.807 79.0932C172.807 79.0932 169.609 81.1647 168.922 83.2772C168.539 84.4753 168.078 85.6475 167.543 86.7865L163.578 94.9174L162.851 101.384C162.851 101.384 163.255 104.253 163.175 104.693C163.095 105.133 164.835 109.078 164.835 109.078C164.835 109.078 170.582 119.161 172.93 119.679L173.098 119.562C173.199 119.613 173.306 119.652 173.416 119.679L173.899 119.34C173.929 119.719 173.916 120.1 173.86 120.476C173.539 121.474 173.983 127.971 174.549 129.245C175.114 130.519 174.914 147.225 174.914 147.225L174.834 148.697C174.834 148.697 174.834 148.745 174.853 148.827L174.834 149.176L174.892 149.206C174.952 149.674 174.933 150.15 174.834 150.612C174.631 151.258 174.549 153.084 174.549 153.084C174.549 153.084 172.93 163.405 173.698 165.479C174.467 167.552 175.116 169.824 175.116 169.824C175.116 169.824 175.926 172.411 175.155 172.842C174.385 173.273 172.203 174.039 172.647 175.114C173.057 176.11 174.614 178.779 174.845 179.169L174.825 179.384L174.508 182.818C174.559 183.272 174.682 183.714 174.873 184.129C175.22 184.879 175.893 185.653 177.18 185.569C177.396 185.554 177.644 185.53 177.888 185.498C180.238 185.181 183.13 184.133 183.13 184.133C182.98 184.038 182.843 183.925 182.722 183.795C182.607 183.683 182.515 183.549 182.453 183.401C182.391 183.252 182.36 183.093 182.362 182.933C182.396 182.305 181.224 179.328 180.931 178.593L180.864 178.43C180.864 178.43 183.536 175.638 183.091 173.168C183.091 173.168 180.134 171.443 181.108 170.495C182.081 169.546 183.821 166.83 183.821 166.83C183.821 166.83 183.901 156.667 183.821 155.151C183.737 154.097 183.787 153.037 183.97 151.995C184.002 151.84 184.041 151.687 184.082 151.534C185.429 151.737 186.79 151.84 188.152 151.842C188.65 151.842 189.154 151.832 189.663 151.812C189.663 151.956 189.67 152.111 189.683 152.278C189.795 154.796 190.004 159.212 190.175 160.853C190.416 163.202 191.752 169.542 191.752 169.542C191.752 169.542 189.203 171.174 192.197 175.203C192.197 175.203 192.197 176.66 191.998 176.873C191.786 177.564 191.615 178.268 191.487 178.979C191.362 179.736 191.31 180.505 191.513 180.902C191.998 181.855 194.912 181.777 194.912 181.777C194.935 181.772 194.959 181.768 194.983 181.766C195.533 181.708 196.089 181.76 196.619 181.92C197.148 182.079 197.641 182.342 198.067 182.693C199.175 183.581 203.374 183.193 205.651 182.909C206.543 182.795 207.138 182.693 207.138 182.693C207.167 182.592 207.177 182.487 207.169 182.383C207.145 181.825 206.707 180.6 203.737 179.507C203.737 179.507 200.944 177.632 200.983 175.998H200.921H200.599C200.802 175.992 200.944 175.992 200.944 175.992C200.944 175.992 199.85 172.006 200.297 171.68C200.744 171.355 199.405 166.938 199.405 166.938C199.405 166.938 198.639 159.523 198.596 159.005C198.599 158.56 198.667 158.117 198.799 157.691L198.596 153.623C198.596 153.623 198.557 152.271 198.596 151.832C198.592 151.45 198.562 151.069 198.505 150.691C198.486 150.54 198.467 150.383 198.445 150.228C199.492 149.963 200.172 149.719 200.172 149.719L200.051 135.568C200.94 133.843 201.104 130.058 201.1 127.376C201.1 125.652 201.022 124.376 201.022 124.376L202.237 122.395C202.237 122.395 202.518 120.024 202.073 119.504C201.877 119.269 201.965 119.026 202.127 118.825C202.212 118.755 202.302 118.692 202.397 118.635C202.386 118.62 202.377 118.605 202.369 118.588C202.454 118.517 202.544 118.453 202.639 118.396C202.639 118.396 202.207 117.728 202.593 117.446C202.956 117.691 203.28 117.887 203.526 118.028C203.508 118.185 203.491 118.275 203.491 118.275L203.595 118.06C203.832 118.194 203.977 118.275 203.977 118.275C203.977 118.275 205.88 114.488 205.839 113.932C205.798 113.376 207.134 111.022 207.134 111.022C207.134 111.022 207.296 109.785 208.026 109.267C208.755 108.75 208.591 105.001 208.591 105.001C208.591 105.001 208.794 103.048 209.279 102.253C209.765 101.457 208.846 100.375 208.846 100.375ZM172.423 98.7134L172.46 99.6166C172.244 99.2695 172.088 99.0216 172.088 99.0216L172.423 98.7134Z" fill="url(#paint1_linear_12_2)"/>
<path d="M204.089 116.637L203.623 118.62C203.623 118.62 199.889 116.713 199.218 114.298C198.547 111.884 200.342 110.964 200.342 110.964L203.823 112.434L204.089 116.637Z" fill="white"/>
<path opacity="0.1" d="M204.089 116.637L203.623 118.62C203.623 118.62 199.889 116.713 199.218 114.298C198.547 111.884 200.342 110.964 200.342 110.964L203.823 112.434L204.089 116.637Z" fill="black"/>
<path d="M183.134 184.131C183.134 184.131 179.681 185.399 177.307 185.558C176.047 185.642 175.384 184.87 175.043 184.127C174.858 183.717 174.737 183.28 174.685 182.833L174.998 179.417L175.162 177.6L180.206 176.289L180.92 178.473L180.987 178.636C181.272 179.367 182.424 182.329 182.39 182.948C182.387 183.108 182.417 183.267 182.477 183.415C182.538 183.563 182.628 183.697 182.742 183.81C182.858 183.933 182.99 184.041 183.134 184.131Z" fill="white"/>
<path d="M206.711 182.394C206.72 182.498 206.71 182.603 206.681 182.704C206.681 182.704 199.295 183.933 197.785 182.704C197.36 182.345 196.865 182.079 196.331 181.922C195.798 181.765 195.237 181.721 194.685 181.792C194.685 181.792 191.828 181.87 191.351 180.93C191.152 180.536 191.204 179.77 191.327 179.018C191.453 178.31 191.62 177.611 191.828 176.923L191.942 176.832L192.622 176.287L200.582 176.052H200.642C200.603 177.677 203.342 179.542 203.342 179.542C206.258 180.62 206.687 181.838 206.711 182.394Z" fill="white"/>
<path opacity="0.1" d="M206.713 182.394C206.721 182.498 206.71 182.603 206.681 182.704C206.681 182.704 199.295 183.933 197.787 182.704C197.362 182.345 196.866 182.078 196.332 181.921C195.798 181.764 195.237 181.72 194.685 181.792C194.685 181.792 191.826 181.87 191.349 180.93C191.152 180.536 191.202 179.77 191.325 179.016C192.426 179.126 194.163 179.4 194.845 180.055C195.877 181.046 197.625 182.038 198.695 182.118C199.541 182.17 204.572 182.329 206.713 182.394Z" fill="black"/>
<path opacity="0.1" d="M183.134 184.131C183.134 184.131 179.681 185.399 177.307 185.558C176.047 185.642 175.384 184.87 175.043 184.127C175.924 184.422 177.143 184.73 177.784 184.448C178.544 184.11 181.237 183.894 182.748 183.801C182.862 183.927 182.992 184.038 183.134 184.131Z" fill="black"/>
<path d="M188.258 81.9795C185.409 80.8737 181.744 77.22 182.66 75.5127C182.862 75.0815 182.983 74.6168 183.016 74.1418C183.075 73.4967 183.083 72.8481 183.042 72.2017C182.977 71.1424 182.85 70.0879 182.66 69.0438C182.66 69.0438 191.554 69.2442 191.036 70.5527C190.885 70.9385 190.859 71.6046 190.902 72.3483C190.945 73.092 191.051 73.9391 191.163 74.6526C191.316 75.6291 191.474 76.3771 191.474 76.3771C191.474 76.3771 190.928 77.138 190.611 77.179C190.293 77.22 192.346 83.5639 188.258 81.9795Z" fill="#CF6F80"/>
<path opacity="0.1" d="M180.978 178.626L180.911 178.699C178.252 175.487 175.037 179.492 175.037 179.492L174.989 179.406L175.153 177.589L180.197 176.278L180.911 178.462L180.978 178.626Z" fill="black"/>
<path opacity="0.1" d="M200.646 176.278C200.646 176.278 198.704 176.239 197.668 177.153C196.632 178.067 191.625 177.35 191.841 177.153C191.904 177.054 191.942 176.941 191.953 176.824L192.633 176.278L200.593 176.043C200.623 176.194 200.646 176.278 200.646 176.278Z" fill="black"/>
<path d="M184.287 151.056C184.143 151.413 184.033 151.783 183.959 152.161C183.779 153.197 183.729 154.252 183.81 155.3C183.89 156.809 183.81 166.921 183.81 166.921C183.81 166.921 182.103 169.617 181.149 170.568C180.195 171.519 183.091 173.226 183.091 173.226C183.523 175.685 180.907 178.462 180.907 178.462C178.248 175.25 175.032 179.253 175.032 179.253C175.032 179.253 173.284 176.235 172.848 175.157C172.412 174.08 174.555 173.336 175.309 172.896C176.062 172.456 175.27 169.878 175.27 169.878C175.27 169.878 174.635 167.617 173.88 165.554C173.124 163.491 174.713 153.224 174.713 153.224C174.713 153.224 174.795 151.398 174.991 150.762C175.089 150.303 175.109 149.831 175.05 149.366C175.037 149.208 175.022 149.079 175.011 148.988C175 148.898 174.991 148.859 174.991 148.859L175.022 148.807L176.101 146.798C176.101 146.798 184.805 149.79 184.287 151.056Z" fill="#0089FF"/>
<path d="M200.646 176.041C200.646 176.041 198.704 176 197.668 176.903C196.632 177.807 191.625 177.102 191.841 176.903C192.057 176.705 192.037 175.239 192.037 175.239C189.1 171.232 191.606 169.607 191.606 169.607C191.606 169.607 190.295 163.302 190.058 160.963C189.892 159.331 189.687 154.927 189.577 152.433C189.529 151.355 189.501 150.612 189.501 150.612L191.88 150.14L192.188 150.079L197.977 148.917C197.977 148.917 198.136 149.995 198.244 150.877C198.299 151.253 198.328 151.633 198.333 152.013C198.296 152.444 198.333 153.795 198.333 153.795L198.531 157.839C198.403 158.264 198.336 158.704 198.333 159.148C198.374 159.665 199.127 167.039 199.127 167.039C199.127 167.039 200.437 171.441 199.99 171.758C199.544 172.075 200.646 176.041 200.646 176.041Z" fill="#0089FF"/>
<path opacity="0.1" d="M191.036 70.5592C190.885 70.945 190.859 71.6111 190.902 72.3548C189.711 73.0713 188.341 73.4376 186.951 73.4117C185.56 73.3858 184.205 72.9686 183.042 72.2082C182.977 71.1489 182.85 70.0944 182.66 69.0502C182.66 69.0502 191.554 69.2507 191.036 70.5592Z" fill="black"/>
<path d="M194.47 65.7996C194.493 67.7554 193.738 69.6404 192.37 71.0399C191.002 72.4394 189.133 73.2388 187.175 73.2623C185.216 73.2857 183.329 72.5313 181.928 71.1649C180.527 69.7985 179.726 67.9321 179.703 65.9764C179.703 65.916 179.703 65.86 179.703 65.7996C179.703 63.8432 180.481 61.967 181.866 60.5837C183.251 59.2003 185.13 58.4232 187.088 58.4232C189.047 58.4232 190.926 59.2003 192.311 60.5837C193.696 61.967 194.474 63.8432 194.474 65.7996H194.47Z" fill="#CF6F80"/>
<path opacity="0.1" d="M188.258 81.9795C185.409 80.8737 181.744 77.22 182.66 75.5127C182.862 75.0815 182.983 74.6168 183.016 74.1418L186.916 77.345L189.329 79.3217L191.163 74.6591C191.316 75.6356 191.474 76.3836 191.474 76.3836C191.474 76.3836 190.928 77.1445 190.611 77.1855C190.293 77.2264 192.346 83.5639 188.258 81.9795Z" fill="black"/>
<path d="M198.344 96.1353L195.087 150.78L190.839 151.058L179.839 119.373L181.643 81.7553L182.025 73.8076L186.916 77.8192L189.329 79.7959L191.217 74.9954L194.729 78.052L198.344 96.1353Z" fill="#0089FF"/>
<path opacity="0.1" d="M184.287 151.056C184.143 151.413 184.033 151.783 183.959 152.161C180.865 151.686 177.861 150.749 175.045 149.383L174.987 149.353L175.006 149.006V148.825L176.086 146.816C176.086 146.816 184.805 149.79 184.287 151.056Z" fill="black"/>
<path opacity="0.1" d="M191.951 152.17C191.161 152.305 190.364 152.396 189.564 152.444C189.516 151.366 189.488 150.622 189.488 150.622L191.88 150.139L191.951 152.17Z" fill="black"/>
<path opacity="0.1" d="M198.253 150.877C196.718 151.275 194.347 151.724 192.227 151.444L192.197 150.079L197.985 148.917C197.985 148.917 198.139 149.986 198.253 150.877Z" fill="black"/>
<path opacity="0.1" d="M192.188 151.694C183.339 153.203 175.235 148.876 175.235 148.876L175.313 147.41C175.313 147.41 175.514 130.793 174.957 129.519C174.4 128.245 173.966 121.793 174.281 120.808C174.596 119.823 173.131 104.95 173.131 104.95L172.893 98.9139L164.198 95.3852L168.083 87.2952C168.607 86.1612 169.059 84.9948 169.434 83.8031C170.109 81.7014 173.245 79.6385 173.245 79.6385C173.245 79.6385 176.461 77.5778 177.732 77.6554C179.004 77.733 180.67 75.8317 180.67 75.8317C181.9 72.6997 183.014 74.1073 183.014 74.1073C183.014 74.2582 183.014 74.1073 182.953 74.5707C182.521 78.0089 189.933 88.8731 190.039 89.0671L190.753 106.239L191.467 127.969L192.188 151.694Z" fill="black"/>
<path d="M191.951 151.694C183.102 153.203 174.996 148.876 174.996 148.876L175.075 147.41C175.075 147.41 175.274 130.793 174.717 129.519C174.16 128.245 173.727 121.787 174.044 120.793C174.361 119.799 172.887 104.941 172.887 104.941L172.647 98.9053L163.954 95.3765L167.839 87.2866C168.362 86.1528 168.813 84.9872 169.19 83.7967C169.865 81.7014 173.012 79.6364 173.012 79.6364C173.012 79.6364 176.228 77.5756 177.497 77.6532C178.766 77.7308 180.441 75.8317 180.441 75.8317C181.673 72.6997 183.031 74.1073 183.031 74.1073C183.031 74.2582 182.901 74.3228 182.97 74.5707C183.92 77.9054 189.713 88.8731 189.819 89.0671L190.533 106.239L191.232 127.98L191.951 151.694Z" fill="white"/>
<path opacity="0.1" d="M189.566 89.5521C188.614 89.1555 183.573 83.4065 183.573 83.4065V82.0981C183.389 81.6669 182.297 81.9299 181.414 82.2317L181.794 74.284L182.226 74.6419C183.169 77.9744 189.462 89.3603 189.566 89.5521Z" fill="black"/>
<path d="M189.806 89.0779C188.852 88.6791 183.81 82.9323 183.81 82.9323V81.6217C183.626 81.1906 182.537 81.4535 181.652 81.7553L182.025 73.8163L182.457 74.1719C183.409 77.5002 189.7 88.8839 189.806 89.0779Z" fill="white"/>
<path opacity="0.1" d="M175.235 117.747C175.354 117.747 181.388 117.114 181.388 117.114C181.388 117.114 185.042 124.292 184.803 126.036C184.563 127.779 184.129 129.327 182.66 129.053C181.19 128.78 174.75 129.269 174.75 129.269L175.235 117.747Z" fill="black"/>
<path d="M174.996 117.271C175.116 117.271 181.151 116.637 181.151 116.637C181.151 116.637 184.803 123.826 184.565 125.551C184.328 127.275 183.89 128.842 182.422 128.568C180.955 128.295 174.51 128.784 174.51 128.784L174.996 117.271Z" fill="white"/>
<path d="M179.543 113.91C179.543 113.91 185.081 116.885 185.2 117.79C185.319 118.696 182.381 117.394 181.747 117.234C181.329 117.135 180.904 117.069 180.475 117.036L176.243 117.15L179.543 113.91Z" fill="#CF6F80"/>
<path opacity="0.1" d="M188.019 89.9229C188.34 89.9229 188.601 89.6623 188.601 89.3409C188.601 89.0194 188.34 88.7589 188.019 88.7589C187.697 88.7589 187.436 89.0194 187.436 89.3409C187.436 89.6623 187.697 89.9229 188.019 89.9229Z" fill="black"/>
<path d="M188.019 89.6858C188.34 89.6858 188.601 89.4252 188.601 89.1037C188.601 88.7823 188.34 88.5217 188.019 88.5217C187.697 88.5217 187.436 88.7823 187.436 89.1037C187.436 89.4252 187.697 89.6858 188.019 89.6858Z" fill="#3F3D56"/>
<path opacity="0.1" d="M189.091 115.117C189.413 115.117 189.674 114.857 189.674 114.535C189.674 114.214 189.413 113.953 189.091 113.953C188.769 113.953 188.508 114.214 188.508 114.535C188.508 114.857 188.769 115.117 189.091 115.117Z" fill="black"/>
<path d="M189.091 114.878C189.413 114.878 189.674 114.618 189.674 114.296C189.674 113.975 189.413 113.714 189.091 113.714C188.769 113.714 188.508 113.975 188.508 114.296C188.508 114.618 188.769 114.878 189.091 114.878Z" fill="#3F3D56"/>
<path opacity="0.1" d="M188.601 102.52C188.923 102.52 189.184 102.26 189.184 101.938C189.184 101.617 188.923 101.356 188.601 101.356C188.279 101.356 188.019 101.617 188.019 101.938C188.019 102.26 188.279 102.52 188.601 102.52Z" fill="black"/>
<path d="M188.601 102.283C188.923 102.283 189.184 102.023 189.184 101.701C189.184 101.38 188.923 101.119 188.601 101.119C188.279 101.119 188.019 101.38 188.019 101.701C188.019 102.023 188.279 102.283 188.601 102.283Z" fill="#3F3D56"/>
<path d="M202.034 116.915C202.034 116.915 202.431 117.51 202.034 117.778C201.637 118.045 202.073 118.73 202.073 118.73C202.073 118.73 201.082 119.308 201.518 119.832C201.954 120.356 201.678 122.707 201.678 122.707L200.487 124.688C200.487 124.688 200.558 125.958 200.562 127.674C200.562 130.351 200.405 134.115 199.533 135.831L199.649 149.909C199.649 149.909 195.477 151.433 191.985 150.967L191.467 128.377C191.467 128.377 192.223 115.566 192.501 113.109C192.664 111.833 192.731 110.547 192.7 109.261C192.7 109.261 192.581 105.415 192.182 103.632C192.182 103.632 191.75 95.8982 191.707 93.7577C191.688 92.7338 191.742 89.7461 191.802 86.9051C191.869 83.7988 191.944 80.8694 191.944 80.8694L191.157 74.6419C191.157 74.6419 191.944 74.5643 192.182 74.879C192.288 74.9782 192.404 75.067 192.527 75.1441C193.889 76.0624 198.693 78.8862 198.693 78.8862C198.693 78.8862 201.352 79.9425 201.989 81.4557C202.626 82.9689 203.068 84.0424 203.377 84.4735C203.685 84.9047 203.854 86.9309 203.854 86.9309C203.854 86.9309 204.769 90.6601 205.483 91.2917C206.197 91.9233 206.711 95.9327 206.711 95.9327L200.398 100.891C200.398 100.891 199.844 109.138 199.725 109.457C199.606 109.776 202.034 116.915 202.034 116.915Z" fill="white"/>
<path d="M202.274 116.915C202.274 116.915 202.669 117.51 202.274 117.778C201.879 118.045 202.31 118.73 202.31 118.73C202.31 118.73 201.32 119.308 201.756 119.832C202.192 120.356 201.916 122.707 201.916 122.707L200.728 124.688C200.728 124.688 200.8 125.958 200.806 127.674C200.806 130.351 200.649 134.115 199.777 135.831L199.895 149.909C199.895 149.909 195.723 151.433 192.231 150.967L191.716 128.377C191.716 128.377 192.469 115.566 192.749 113.109C192.913 111.833 192.978 110.546 192.946 109.261C192.946 109.261 192.827 105.415 192.43 103.632C192.43 103.632 191.998 95.8982 191.953 93.7577C191.934 92.7338 191.988 89.7461 192.048 86.9051C192.115 83.7988 192.19 80.8694 192.19 80.8694L191.15 74.5578C191.15 74.5578 192.19 74.5578 192.43 74.879C192.535 74.9794 192.651 75.0683 192.775 75.1441C194.135 76.0624 198.939 78.8862 198.939 78.8862C198.939 78.8862 201.592 79.9425 202.239 81.4557C202.887 82.9689 203.318 84.0424 203.627 84.4735C203.936 84.9047 204.104 86.9309 204.104 86.9309C204.104 86.9309 205.019 90.6601 205.733 91.2917C206.448 91.9233 206.964 95.9327 206.964 95.9327L200.651 100.891C200.651 100.891 200.096 109.138 199.975 109.457C199.854 109.776 202.274 116.915 202.274 116.915Z" fill="white"/>
<path opacity="0.1" d="M194.713 82.6995L195.285 84.3593L192.283 87.3771C192.35 84.2709 192.426 81.3414 192.426 81.3414L191.385 75.032C191.385 75.032 192.426 75.032 192.665 75.3532C192.771 75.4536 192.886 75.5425 193.011 75.6183L195.562 82.9668L194.713 82.6995Z" fill="black"/>
<path d="M194.47 82.2231L195.041 83.8808L192.041 86.8986C192.106 83.7924 192.184 80.8629 192.184 80.8629L191.141 74.5513C191.141 74.5513 192.184 74.5513 192.421 74.8725C192.527 74.9723 192.643 75.0611 192.767 75.1377L195.333 82.4926L194.47 82.2231Z" fill="white"/>
<path opacity="0.1" d="M194.47 65.7996C194.47 66.5763 194.348 67.3482 194.107 68.0867C194.066 68.0935 194.025 68.092 193.985 68.0824C193.945 68.0728 193.907 68.0552 193.874 68.0307C193.816 66.0906 192.862 64.267 191.685 62.7171C191.355 62.2496 190.954 61.8353 190.498 61.4884C190.037 61.1424 189.463 60.9803 188.888 61.0336C188.241 61.122 187.669 61.5617 187.015 61.6178C186.152 61.6889 185.379 61.0918 184.522 61.0638C184.174 61.0666 183.83 61.1439 183.514 61.2904C183.198 61.4369 182.917 61.6492 182.69 61.9131C182.239 62.4438 181.905 63.0628 181.708 63.7302C181.368 64.743 181.184 65.8011 181.16 66.8688C181.149 67.4723 181.091 68.229 180.529 68.4488C180.572 68.0053 180.521 67.5577 180.381 67.1347C180.241 66.7116 180.015 66.3223 179.716 65.9915L179.703 65.9764C179.703 65.916 179.703 65.86 179.703 65.7996C179.703 63.8433 180.481 61.967 181.866 60.5837C183.251 59.2003 185.13 58.4232 187.088 58.4232C189.047 58.4232 190.926 59.2003 192.311 60.5837C193.696 61.967 194.474 63.8433 194.474 65.7996H194.47Z" fill="black"/>
<path d="M190.153 54.0882C189.031 53.5613 187.756 53.4617 186.566 53.808C185.968 53.9848 185.405 54.2715 184.798 54.4159C183.503 54.7285 181.993 54.39 180.881 55.1466C180.264 55.5778 179.893 56.2589 179.547 56.9229L178.684 58.5633C178.214 59.4621 177.739 60.3761 177.542 61.3655C177.346 62.355 177.465 63.4629 178.093 64.2605C178.548 64.8382 179.226 65.2025 179.722 65.7479C180.02 66.0804 180.246 66.4709 180.386 66.895C180.526 67.319 180.576 67.7673 180.534 68.2117C181.095 67.9961 181.151 67.2352 181.164 66.6317C181.188 65.564 181.373 64.5059 181.712 63.4931C181.909 62.8256 182.244 62.2067 182.694 61.6759C182.921 61.4118 183.202 61.1992 183.518 61.0523C183.834 60.9055 184.178 60.8278 184.526 60.8245C185.39 60.8547 186.165 61.4518 187.019 61.3785C187.667 61.3246 188.241 60.8848 188.893 60.7965C189.467 60.7421 190.042 60.9044 190.503 61.2513C190.959 61.5971 191.359 62.0116 191.688 62.48C192.866 64.032 193.822 65.847 193.878 67.7935C194.122 67.9703 194.474 67.7375 194.595 67.4616C194.716 67.1856 194.72 66.8623 194.873 66.5993C195.05 66.2954 195.389 66.1316 195.654 65.9031C196.328 65.3232 196.496 64.3467 196.47 63.4608C196.444 62.5748 196.272 61.6759 196.44 60.8051C196.541 60.2727 196.77 59.7704 196.895 59.2423C197.021 58.7142 197.036 58.1214 196.74 57.6665C196.308 57.0004 195.4 56.8668 194.608 56.8043C193.708 56.7267 192.903 56.8259 192.329 56.0692C192.058 55.6749 191.755 55.3042 191.422 54.9613C191.303 54.847 190.153 54.1357 190.153 54.0882Z" fill="#512E4E"/>
<path opacity="0.1" d="M166.689 99.5455L164.435 95.383L163.721 101.807C163.721 101.807 164.118 104.661 164.038 105.098C163.958 105.536 165.666 109.459 165.666 109.459C165.666 109.459 171.305 119.493 173.608 120.009L181.378 114.456L179.314 111.839C179.314 111.839 178.6 111.561 178.421 111.839C178.421 111.839 174.588 105.256 174.193 104.781C173.798 104.307 173.873 103.352 173.873 103.352C173.873 103.352 173.278 102.719 173.476 102.124C173.675 101.529 172.337 99.4679 172.337 99.4679L173.567 98.3189L166.689 99.5455Z" fill="black"/>
<path d="M164.554 94.9066L163.958 95.383L163.244 101.807C163.244 101.807 163.641 104.661 163.561 105.098C163.481 105.536 165.191 109.459 165.191 109.459C165.191 109.459 170.828 119.493 173.131 120.009L180.914 114.456L178.848 111.839C178.848 111.839 178.134 111.561 177.955 111.839C177.955 111.839 174.124 105.256 173.727 104.781C173.329 104.307 173.409 103.352 173.409 103.352C173.409 103.352 172.814 102.719 173.012 102.124C173.211 101.529 171.86 99.4679 171.86 99.4679L173.09 98.3189L164.554 94.9066Z" fill="white"/>
<path opacity="0.1" d="M201.518 120.08C201.95 120.603 201.678 122.957 201.678 122.957L200.487 124.925C200.487 124.925 200.558 126.197 200.562 127.913L198.559 128.538C198.378 128.595 198.186 128.607 197.999 128.574C197.812 128.541 197.635 128.464 197.484 128.35C197.333 128.235 197.211 128.086 197.13 127.915C197.048 127.743 197.008 127.555 197.014 127.366L197.362 116.243L202.034 118.025C201.637 118.301 202.073 118.978 202.073 118.978C202.073 118.978 201.082 119.556 201.518 120.08Z" fill="black"/>
<path d="M201.756 119.843C202.187 120.364 201.916 122.718 201.916 122.718L200.729 124.688C200.729 124.688 200.8 125.958 200.806 127.674L198.767 128.31C198.59 128.365 198.402 128.378 198.219 128.346C198.036 128.314 197.863 128.239 197.716 128.127C197.568 128.015 197.449 127.869 197.369 127.702C197.289 127.534 197.25 127.35 197.256 127.165L197.603 116.003L202.274 117.79C201.875 118.066 202.311 118.743 202.311 118.743C202.311 118.743 201.32 119.319 201.756 119.843Z" fill="white"/>
<path d="M203.305 114.536C203.305 114.536 202.988 116.56 202.194 116.678C201.4 116.797 201.044 119.953 200.252 119.843C199.459 119.733 199.984 116.907 200.012 116.359C200.04 115.812 199.149 113.544 199.813 113.029C200.478 112.514 202.593 113.029 202.593 113.029L203.305 114.536Z" fill="#CF6F80"/>
<path opacity="0.1" d="M204.985 98.9505L206.48 95.9327C206.48 95.9327 207.078 98.2327 207.078 99.4614C207.078 100.69 207.911 100.811 207.911 100.811C207.911 100.811 208.824 101.889 208.343 102.675C207.862 103.462 207.669 105.411 207.669 105.411C207.669 105.411 207.827 109.138 207.113 109.653C206.398 110.168 206.239 111.399 206.239 111.399C206.239 111.399 204.928 113.738 204.97 114.294C205.011 114.85 203.144 118.616 203.144 118.616C203.144 118.616 204.057 113.936 198.736 111.914C198.736 111.914 198.695 110.328 199.093 109.892C199.49 109.457 200.109 109.246 199.721 107.056C199.332 104.865 199.608 102.225 199.608 101.697C199.608 101.169 200.8 97.877 200.8 97.877L204.985 98.9505Z" fill="black"/>
<path d="M205.649 95.5016L206.957 95.9327C206.957 95.9327 207.555 98.2327 207.555 99.4614C207.555 100.69 208.388 100.811 208.388 100.811C208.388 100.811 209.301 101.889 208.82 102.675C208.338 103.462 208.144 105.411 208.144 105.411C208.144 105.411 208.304 109.138 207.59 109.653C206.875 110.168 206.726 111.399 206.726 111.399C206.726 111.399 205.416 113.738 205.457 114.294C205.498 114.85 203.629 118.616 203.629 118.616C203.629 118.616 204.542 113.936 199.222 111.914C199.222 111.914 199.183 110.328 199.58 109.892C199.977 109.457 200.597 109.246 200.208 107.056C199.82 104.865 200.096 102.225 200.096 101.697C200.096 101.169 201.287 97.8771 201.287 97.8771L205.649 95.5016Z" fill="white"/>
<path opacity="0.1" d="M176.755 173.722C176.755 173.722 178.84 172.413 180.208 173.364C181.576 174.315 176.755 173.722 176.755 173.722Z" fill="black"/>
<path opacity="0.1" d="M192.959 169.676C192.959 169.676 194.804 169.439 196.354 171.105C197.903 172.771 192.959 169.676 192.959 169.676Z" fill="black"/>
<g opacity="0.1">
<path opacity="0.1" d="M195.654 65.4288C195.389 65.6595 195.048 65.8212 194.871 66.1251C194.72 66.3859 194.716 66.7093 194.595 66.9873C194.474 67.2654 194.122 67.496 193.876 67.3193C193.82 65.3793 192.864 63.5578 191.688 62.0057C191.359 61.538 190.959 61.1242 190.503 60.7792C190.041 60.4316 189.466 60.2686 188.89 60.3222C188.243 60.4106 187.673 60.8503 187.019 60.9064C186.156 60.9775 185.381 60.3804 184.524 60.3524C184.176 60.355 183.833 60.4322 183.517 60.5787C183.201 60.7252 182.921 60.9377 182.694 61.2017C182.244 61.7325 181.909 62.3514 181.712 63.0189C181.373 64.0317 181.188 65.0897 181.164 66.1574C181.151 66.7588 181.095 67.509 180.538 67.7332C180.551 67.8931 180.551 68.0539 180.538 68.2139C181.101 67.9983 181.157 67.2374 181.17 66.6338C181.195 65.5661 181.379 64.5081 181.719 63.4953C181.916 62.8278 182.25 62.2088 182.701 61.6781C182.927 61.4141 183.208 61.2016 183.524 61.0547C183.839 60.9079 184.183 60.8301 184.531 60.8266C185.394 60.8568 186.171 61.4539 187.026 61.3806C187.673 61.3267 188.247 60.887 188.897 60.7986C189.472 60.7444 190.047 60.9066 190.509 61.2534C190.965 61.5992 191.365 62.0138 191.694 62.4821C192.87 64.0342 193.826 65.8492 193.883 67.7957C194.129 67.9724 194.48 67.7396 194.601 67.4637C194.722 67.1878 194.726 66.8645 194.877 66.6015C195.054 66.2975 195.395 66.1337 195.661 65.9052C196.334 65.3254 196.503 64.3489 196.477 63.4629C196.477 63.4349 196.477 63.409 196.477 63.381C196.434 64.1527 196.229 64.9352 195.654 65.4288Z" fill="black"/>
<path opacity="0.1" d="M179.72 65.2779C179.226 64.7326 178.548 64.3661 178.093 63.7884C177.708 63.2785 177.489 62.6632 177.465 62.0251C177.397 62.8229 177.62 63.6182 178.093 64.2648C178.548 64.8425 179.226 65.2068 179.72 65.7522C180.197 66.2853 180.484 66.9615 180.536 67.675C180.568 67.2411 180.513 66.8053 180.373 66.3934C180.232 65.9815 180.01 65.6021 179.72 65.2779Z" fill="black"/>
<path opacity="0.1" d="M196.895 58.768C196.768 59.2962 196.541 59.7984 196.438 60.3309C196.376 60.6909 196.353 61.0567 196.371 61.4216C196.378 61.2154 196.4 61.0101 196.438 60.8072C196.541 60.2748 196.768 59.7726 196.895 59.2444C196.969 58.953 196.993 58.6514 196.967 58.352C196.953 58.4922 196.929 58.6312 196.895 58.768Z" fill="black"/>
</g>
<path opacity="0.1" d="M28.6465 180.829C40.2611 180.829 49.6765 179.318 49.6765 177.455C49.6765 175.592 40.2611 174.082 28.6465 174.082C17.0319 174.082 7.61646 175.592 7.61646 177.455C7.61646 179.318 17.0319 180.829 28.6465 180.829Z" fill="#0089FF"/>
<path d="M29.3242 112.828H27.971V143.259H29.3242V112.828Z" fill="#535461"/>
<path d="M37.8299 143.168L37.7435 144.539L37.6248 146.479L37.5752 147.285L37.4543 149.226L37.4025 150.032L37.2838 151.972L35.9177 173.974C35.8594 174.921 35.4418 175.809 34.75 176.459C34.0582 177.109 33.1443 177.47 32.1947 177.47H25.1005C24.1483 177.471 23.232 177.107 22.5397 176.454C21.8474 175.801 21.4315 174.908 21.3775 173.959L20.0113 151.957L19.8926 150.017L19.843 149.21L19.72 147.27L19.6703 146.464L19.5516 144.524L19.4653 143.153C19.4503 142.89 19.4891 142.627 19.5792 142.38C19.6693 142.133 19.8088 141.906 19.9893 141.714C20.1698 141.523 20.3875 141.37 20.6291 141.265C20.8707 141.159 21.1312 141.105 21.3948 141.103H35.9025C36.1672 141.105 36.4288 141.16 36.6713 141.266C36.9137 141.373 37.1319 141.527 37.3123 141.72C37.4928 141.914 37.6318 142.142 37.7208 142.391C37.8098 142.64 37.8469 142.904 37.8299 143.168Z" fill="#3F3D56"/>
<path d="M37.7436 144.537L37.6227 146.473H19.6704L19.5495 144.537H37.7436Z" fill="#9D9CB5"/>
<path d="M37.573 147.279L37.4543 149.215H19.8408L19.72 147.279H37.573Z" fill="#9D9CB5"/>
<path d="M37.4025 150.023L37.2838 151.957H20.0113L19.8904 150.023H37.4025Z" fill="#9D9CB5"/>
<path d="M17.4927 124.236C25.3746 129.931 28.6573 138.838 28.6573 138.838C28.6573 138.838 19.161 138.512 11.2769 132.817C3.39279 127.122 0.105774 118.222 0.105774 118.222C0.105774 118.222 9.60209 118.541 17.4927 124.236Z" fill="#0089FF"/>
<path d="M0.105774 118.222C0.105774 118.222 9.96252 123.686 13.1244 128.211C16.2862 132.735 28.6487 138.842 28.6487 138.842" stroke="#535461" stroke-width="2" stroke-miterlimit="10"/>
<path d="M22.571 112.764C26.8616 115.861 28.6487 120.709 28.6487 120.709C28.6487 120.709 23.4689 120.532 19.189 117.435C14.9092 114.337 13.1114 109.487 13.1114 109.487C13.1114 109.487 18.2826 109.664 22.571 112.764Z" fill="#0089FF"/>
<path d="M13.1114 109.487C13.1114 109.487 18.4768 112.462 20.1991 114.924C21.9214 117.385 28.6487 120.709 28.6487 120.709" stroke="#535461" stroke-width="2" stroke-miterlimit="10"/>
<path d="M34.8817 120.463C29.9544 125.872 28.912 132.94 28.912 132.94C28.912 132.94 35.8594 131.237 40.7824 125.827C45.7054 120.416 46.7521 113.35 46.7521 113.35C46.7521 113.35 39.809 115.055 34.8817 120.463Z" fill="#0089FF"/>
<path d="M46.7564 113.352C46.7564 113.352 40.3378 118.896 38.7061 122.716C37.0745 126.536 28.912 132.94 28.912 132.94" stroke="#535461" stroke-width="2" stroke-miterlimit="10"/>
</g>
<defs>
<linearGradient id="paint0_linear_12_2" x1="100.473" y1="180.113" x2="100.473" y2="55.595" gradientUnits="userSpaceOnUse">
<stop stop-color="#808080" stop-opacity="0.25"/>
<stop offset="0.54" stop-color="#808080" stop-opacity="0.12"/>
<stop offset="1" stop-color="#808080" stop-opacity="0.1"/>
</linearGradient>
<linearGradient id="paint1_linear_12_2" x1="41067.1" y1="116694" x2="41067.1" y2="35077.9" gradientUnits="userSpaceOnUse">
<stop stop-color="#808080" stop-opacity="0.25"/>
<stop offset="0.54" stop-color="#808080" stop-opacity="0.12"/>
<stop offset="1" stop-color="#808080" stop-opacity="0.1"/>
</linearGradient>
<clipPath id="clip0_12_2">
<rect width="252" height="186" fill="white"/>
</clipPath>
</defs>
</svg>
